<svg width="162" height="163" viewBox="0 0 162 163" fill="none" xmlns="http://www.w3.org/2000/svg">
    <path d="M83.2643 12.683L34.8465 30.3057C25.6049 33.6847 18.0845 40.6 13.9367 49.5329C9.78901 58.4658 9.35307 68.6861 12.7246 77.9494L43.6805 163L44.2077 162.808C43.3274 149.037 47.1962 135.387 55.1667 124.141C63.1371 112.895 74.7257 104.735 87.9936 101.028L112.211 92.2135C121.45 88.8457 128.971 81.9412 133.123 73.0172C137.274 64.0932 137.716 53.8796 134.351 44.6208L130.835 34.9606C127.464 25.6973 120.56 18.1483 111.641 13.9714C102.722 9.79448 92.5158 9.33111 83.2643 12.683Z" fill="#EE0033"/>
    <rect x="55.7363" y="58" width="8" height="8" rx="4" transform="rotate(20 55.7363 58)" fill="white"/>
    <rect x="71.1094" y="58" width="8" height="8" rx="4" transform="rotate(20 71.1094 58)" fill="white"/>
    <rect x="86.4824" y="58" width="8" height="8" rx="4" transform="rotate(20 86.4824 58)" fill="white"/>
    <path d="M28.9397 53.3199C32.1157 46.4796 37.8743 41.1845 44.9506 38.5971L82.5469 24.9131C89.6308 22.3466 97.4457 22.7014 104.276 25.8998C111.106 29.0983 116.392 34.879 118.974 41.9727L121.704 49.4737C121.704 49.4738 121.704 49.4739 121.704 49.4739C124.281 56.564 123.942 64.385 120.763 71.2184C117.584 78.0519 111.825 83.3387 104.751 85.9174L85.9602 92.7566C75.5753 95.6622 66.5051 102.051 60.2659 110.854C54.2525 119.339 51.2204 129.571 51.6225 139.951L28.0116 75.0803C25.4297 67.9866 25.7636 60.1603 28.9397 53.3199Z" stroke="white" stroke-width="0.8"/>
</svg>