<svg width="18" height="18" viewBox="0 0 18 18" fill="none" xmlns="http://www.w3.org/2000/svg">
    <path d="M10.0771 0.558594C10.2058 0.558625 10.3404 0.590336 10.4629 0.668945H10.4639C10.5848 0.746679 10.6658 0.853104 10.7188 0.958008C10.8166 1.15226 10.8354 1.378 10.832 1.57031C10.8251 1.97001 10.7153 2.50123 10.5576 3.08789C10.2382 4.27619 9.67277 5.86171 9.10059 7.4541L9.02051 7.67676C8.47056 9.20666 7.92176 10.7338 7.56348 11.958C7.46657 12.2894 7.38555 12.5905 7.32324 12.8574L6.99414 14.2686L8.12402 13.3613C8.82469 12.7981 9.67792 11.96 10.5566 11.0967L10.585 11.0674C11.4509 10.2166 12.341 9.34397 13.084 8.75C13.363 8.52706 13.6394 8.32892 13.8994 8.18457L14.1533 8.05957C14.4622 7.92862 14.936 7.82077 15.2891 8.17383C15.5403 8.42511 15.6262 8.7698 15.6494 9.08301C15.6732 9.40382 15.6367 9.7673 15.5713 10.1387C15.4401 10.8825 15.1734 11.7625 14.9189 12.5898L14.8789 12.7217C14.6557 13.4469 14.4473 14.1234 14.3271 14.6738L13.9619 16.3457L15.1699 15.1328C15.4609 14.8407 15.7966 14.4022 16.1729 13.7881C16.3099 13.5643 16.6025 13.4938 16.8262 13.6309C17.0499 13.7679 17.1204 14.0605 16.9834 14.2842C16.4651 15.1303 15.9566 15.7683 15.4512 16.1475C14.9293 16.539 14.3381 16.6979 13.7646 16.4111C13.4098 16.2334 13.3063 15.8718 13.2812 15.5977C13.2555 15.3155 13.2963 14.9849 13.3613 14.6514C13.4828 14.0276 13.7204 13.2512 13.957 12.4834H13.958L14.0107 12.3105C14.2691 11.4709 14.5158 10.6487 14.6348 9.97363C14.6441 9.92082 14.6527 9.87014 14.6602 9.82129L14.8447 8.6084L13.8652 9.34668C13.8056 9.39161 13.7429 9.44018 13.6777 9.49219L13.6768 9.49316C13.1482 9.91577 12.5314 10.4969 11.8818 11.1289L11.2227 11.7744L11.1934 11.8027C10.3276 12.6534 9.43828 13.5261 8.69531 14.1201C8.32356 14.4173 7.9564 14.6714 7.62598 14.8115C7.31699 14.9424 6.84325 15.0502 6.49023 14.6973C6.30922 14.5163 6.25083 14.2743 6.23047 14.085C6.20885 13.8837 6.22155 13.6555 6.25195 13.4189C6.31309 12.9434 6.45923 12.348 6.65137 11.6914C7.01652 10.4436 7.57245 8.897 8.11719 7.38184L8.20605 7.13281C8.78251 5.52845 9.33269 3.9841 9.63965 2.8418V2.84082C9.66679 2.73961 9.69242 2.64315 9.71484 2.55176L10.0264 1.28027L8.94629 2.02051C8.87087 2.07219 8.79273 2.12822 8.71191 2.18848C8.069 2.66766 7.30839 3.38284 6.4873 4.30859C4.84661 6.15853 2.99714 8.81334 1.40039 12.0068C1.283 12.2415 0.997381 12.3361 0.762695 12.2188C0.528199 12.1013 0.433561 11.8165 0.550781 11.582C2.18216 8.31928 4.07687 5.59394 5.77637 3.67773C6.62531 2.72055 7.43299 1.95537 8.14355 1.42578C8.49844 1.16121 8.83792 0.949575 9.15234 0.801758C9.46155 0.656461 9.77757 0.558594 10.0771 0.558594Z" fill="#2F384C" stroke="#2F384C"/>
</svg>
