<svg width="20" height="20" viewBox="0 0 20 20" fill="none" xmlns="http://www.w3.org/2000/svg">
<path d="M4.36694 1.75C4.4009 1.75129 4.43445 1.75739 4.46655 1.76758L4.55737 1.81055L17.8533 10.4492L17.8552 10.4512C17.9199 10.4929 17.9706 10.5534 17.9988 10.625C18.027 10.6967 18.0314 10.7759 18.0125 10.8506L18.0105 10.8594C17.9926 10.9337 17.9513 11.001 17.8933 11.0508C17.8354 11.1005 17.7633 11.1303 17.6873 11.1367L17.6824 11.1377L9.96558 11.8291C9.78755 11.8451 9.62197 11.9245 9.4978 12.0508L9.44702 12.1074L4.64429 18.1084C4.60894 18.1524 4.56334 18.1884 4.51245 18.2129C4.46213 18.237 4.4071 18.2487 4.35132 18.249C4.30744 18.2482 4.26415 18.2411 4.22241 18.2275C4.15148 18.201 4.08951 18.1546 4.04565 18.0928C4.01179 18.045 3.99022 17.99 3.9812 17.9326L3.97632 17.874V2.12598L3.98999 2.02637C3.99889 1.99408 4.01177 1.96263 4.02905 1.93359C4.06358 1.87562 4.11336 1.82818 4.17261 1.7959C4.23202 1.76359 4.29936 1.74744 4.36694 1.75Z" stroke="#2F384C" stroke-width="1.5" stroke-linejoin="round"/>
</svg>
