<svg xmlns="http://www.w3.org/2000/svg" width="20" height="20" viewBox="0 0 20 20" fill="none">
    <path d="M15.3518 6.39239C15.6446 6.09958 16.1194 6.09976 16.4123 6.39239L19.4572 9.43634C19.7501 9.72923 19.7501 10.205 19.4572 10.4979L16.4123 13.5418C16.1194 13.8346 15.6446 13.8347 15.3518 13.5418C15.0591 13.2489 15.059 12.7741 15.3518 12.4813L17.1164 10.7166H13.8527C13.4386 10.7166 13.1027 10.3808 13.1027 9.96661C13.1031 9.55273 13.4388 9.21763 13.8527 9.21759H17.1164L15.3518 7.45294C15.0591 7.16005 15.059 6.6852 15.3518 6.39239ZM4.008 6.39239C4.30092 6.09984 4.77577 6.09961 5.06855 6.39239C5.3611 6.68519 5.36102 7.16009 5.06855 7.45294L3.3039 9.21759H6.56757C6.98147 9.2177 7.31721 9.55277 7.31757 9.96661C7.31757 10.3808 6.98169 10.7165 6.56757 10.7166H3.3039L5.06855 12.4813L5.11933 12.5379C5.35976 12.8323 5.34285 13.2671 5.06855 13.5418C4.79402 13.8163 4.35922 13.8337 4.06464 13.5936L4.008 13.5418L0.963078 10.4979C0.670185 10.205 0.670185 9.72923 0.963078 9.43634L4.008 6.39239Z" fill="#2F384C"/>
</svg>