<svg width="16" height="16" viewBox="0 0 16 16" fill="none" xmlns="http://www.w3.org/2000/svg">
<path d="M9.3335 4.00016L12.0002 4.00016M12.0002 4.00016L14.6668 4.00016M12.0002 4.00016L12.0002 6.66683M12.0002 4.00016L12.0002 1.3335M12.0002 14.6668V14.6668C12.6201 14.6668 12.9301 14.6668 13.1845 14.5987C13.8746 14.4137 14.4137 13.8747 14.5987 13.1845C14.6668 12.9301 14.6668 12.6201 14.6668 12.0002V12.0002C14.6668 11.3802 14.6668 11.0702 14.5987 10.8159C14.4137 10.1257 13.8747 9.58658 13.1845 9.40165C12.9301 9.3335 12.6201 9.3335 12.0002 9.3335V9.3335C11.3802 9.3335 11.0702 9.3335 10.8159 9.40164C10.1257 9.58658 9.58658 10.1257 9.40164 10.8159C9.33349 11.0702 9.33349 11.3802 9.33349 12.0002V12.0002C9.33349 12.6201 9.33349 12.9301 9.40164 13.1845C9.58658 13.8747 10.1257 14.4137 10.8159 14.5987C11.0702 14.6668 11.3802 14.6668 12.0002 14.6668ZM4.00016 14.6668V14.6668C4.62014 14.6668 4.93013 14.6668 5.18447 14.5987C5.87465 14.4137 6.41374 13.8747 6.59868 13.1845C6.66683 12.9301 6.66683 12.6201 6.66683 12.0002V12.0002C6.66683 11.3802 6.66683 11.0702 6.59868 10.8159C6.41375 10.1257 5.87465 9.58658 5.18447 9.40164C4.93013 9.3335 4.62014 9.3335 4.00016 9.3335V9.3335C3.38018 9.3335 3.07019 9.3335 2.81586 9.40164C2.12567 9.58658 1.58658 10.1257 1.40164 10.8159C1.33349 11.0702 1.33349 11.3802 1.33349 12.0002V12.0002C1.33349 12.6201 1.33349 12.9301 1.40164 13.1845C1.58658 13.8746 2.12567 14.4137 2.81586 14.5987C3.07019 14.6668 3.38018 14.6668 4.00016 14.6668ZM4.00016 6.66683V6.66683C4.62014 6.66683 4.93013 6.66683 5.18447 6.59868C5.87465 6.41375 6.41375 5.87465 6.59868 5.18447C6.66683 4.93013 6.66683 4.62014 6.66683 4.00016V4.00016C6.66683 3.38018 6.66683 3.07019 6.59868 2.81586C6.41375 2.12567 5.87465 1.58658 5.18447 1.40165C4.93013 1.3335 4.62014 1.3335 4.00016 1.3335V1.3335C3.38018 1.3335 3.07019 1.3335 2.81586 1.40164C2.12567 1.58658 1.58658 2.12567 1.40164 2.81586C1.3335 3.07019 1.3335 3.38018 1.3335 4.00016V4.00016C1.3335 4.62014 1.3335 4.93013 1.40164 5.18447C1.58658 5.87465 2.12567 6.41375 2.81586 6.59868C3.07019 6.66683 3.38018 6.66683 4.00016 6.66683Z" stroke="#2F384C" stroke-width="1.5" stroke-linecap="round" stroke-linejoin="round"/>
</svg>
