<svg width="18" height="16" viewBox="0 0 18 16" fill="none" xmlns="http://www.w3.org/2000/svg">
<path d="M8.99984 2.66685C8.53519 2.66685 8.07531 2.49237 7.79075 2.12505L7.66229 1.95923C7.15486 1.30424 6.2416 1.12478 5.52405 1.53905L5.14145 1.75995C4.42439 2.17394 4.12339 3.05398 4.4367 3.82039L4.51638 4.0153C4.6923 4.44564 4.61429 4.92897 4.3813 5.33128V5.33128C4.14852 5.73324 3.76676 6.04712 3.30652 6.10988L3.09827 6.13828C2.27802 6.25013 1.6665 6.9507 1.6665 7.77854L1.6665 8.22183C1.6665 9.04967 2.27802 9.75024 3.09827 9.8621L3.30654 9.8905C3.76677 9.95325 4.14852 10.2671 4.38129 10.6691V10.6691C4.61427 11.0714 4.69228 11.5547 4.51637 11.985L4.43668 12.1799C4.12337 12.9464 4.42437 13.8264 5.14142 14.2404L5.52406 14.4613C6.24159 14.8756 7.15483 14.6961 7.66225 14.0411L7.79068 13.8753C8.07526 13.508 8.53516 13.3335 8.99983 13.3335V13.3335V13.3335C9.46456 13.3335 9.92452 13.508 10.2091 13.8754L10.3375 14.0411C10.8449 14.696 11.758 14.8755 12.4755 14.4612L12.8583 14.2402C13.5753 13.8263 13.8763 12.9463 13.563 12.1799L13.4833 11.9849C13.3074 11.5546 13.3854 11.0713 13.6184 10.6691V10.6691C13.8512 10.2671 14.2329 9.95326 14.6931 9.8905L14.9014 9.8621C15.7216 9.75025 16.3332 9.04968 16.3332 8.22184L16.3332 7.77854C16.3332 6.95071 15.7216 6.25013 14.9014 6.13828L14.6931 6.10988C14.2329 6.04712 13.8512 5.73325 13.6184 5.33131V5.33131C13.3854 4.92901 13.3074 4.4457 13.4833 4.01537L13.563 3.82047C13.8763 3.05408 13.5753 2.17407 12.8583 1.76009L12.4756 1.53913C11.758 1.12488 10.8448 1.30433 10.3374 1.95928L10.2091 2.125C9.92447 2.49236 9.46454 2.66685 8.99984 2.66685V2.66685V2.66685Z" stroke="#2F384C" stroke-width="1.5" stroke-linecap="round" stroke-linejoin="round"/>
<path d="M10.9998 8.00016C10.9998 9.10473 10.1044 10.0002 8.99984 10.0002C7.89527 10.0002 6.99984 9.10473 6.99984 8.00016C6.99984 6.89559 7.89527 6.00016 8.99984 6.00016C10.1044 6.00016 10.9998 6.89559 10.9998 8.00016Z" stroke="#2F384C" stroke-width="1.5" stroke-linecap="round" stroke-linejoin="round"/>
</svg>
