<svg width="16" height="16" viewBox="0 0 16 16" fill="none" xmlns="http://www.w3.org/2000/svg">
<path d="M11.7998 1.4502C12.3471 1.4502 12.8029 1.44922 13.1738 1.4795C13.5537 1.51053 13.9108 1.5782 14.2481 1.75001C14.7654 2.01366 15.1856 2.43476 15.4492 2.95216C15.621 3.28932 15.6887 3.64564 15.7197 4.0254C15.75 4.3965 15.749 4.8528 15.749 5.4004L15.749 10.2002C15.749 10.7478 15.75 11.2041 15.7197 11.5752C15.6887 11.9549 15.621 12.3113 15.4492 12.6484C15.1856 13.1658 14.7654 13.587 14.248 13.8506C13.9109 14.0223 13.5536 14.0891 13.1738 14.1201C12.8029 14.1504 12.3471 14.1504 11.7998 14.1504L4.59961 14.1504C4.05203 14.1504 3.59569 14.1504 3.22461 14.1201C2.845 14.0891 2.48841 14.0222 2.15137 13.8506C1.63399 13.5869 1.21286 13.1658 0.949221 12.6484C0.777504 12.3114 0.709763 11.9549 0.678713 11.5752C0.648394 11.2041 0.649416 10.7478 0.649417 10.2002L0.649417 5.40039C0.649418 4.85282 0.648409 4.39649 0.678715 4.02539C0.709739 3.64575 0.777596 3.28923 0.949223 2.95215C1.21283 2.43479 1.63403 2.01366 2.15137 1.75C2.48845 1.57833 2.84496 1.51054 3.22461 1.4795C3.5957 1.44918 4.05203 1.4502 4.59961 1.4502L11.7998 1.4502ZM4.59961 2.9502C4.0273 2.9502 3.64253 2.95044 3.34668 2.97461C3.05983 2.99808 2.92255 3.0408 2.83204 3.08692C2.59703 3.20675 2.40592 3.39778 2.28614 3.63282C2.24005 3.72336 2.19727 3.86071 2.17383 4.14747C2.14967 4.44332 2.14942 4.8281 2.14942 5.40039L2.14942 10.2002C2.14942 10.7725 2.14966 11.1573 2.17383 11.4531C2.1973 11.7399 2.24002 11.8773 2.28614 11.9678C2.40597 12.2028 2.59699 12.3939 2.83203 12.5137C2.92255 12.5598 3.05986 12.6015 3.34668 12.625C3.64253 12.6492 4.0273 12.6504 4.59961 12.6504L11.7998 12.6504C12.3718 12.6504 12.756 12.6491 13.0518 12.625C13.3386 12.6016 13.4768 12.5598 13.5674 12.5137C13.8023 12.3939 13.9935 12.2027 14.1133 11.9678C14.1594 11.8773 14.2011 11.7398 14.2246 11.4531C14.2488 11.1573 14.249 10.7725 14.249 10.2002L14.249 5.4004C14.249 4.82808 14.2488 4.44332 14.2246 4.14747C14.2012 3.86069 14.1594 3.72336 14.1133 3.63282C13.9935 3.39781 13.8023 3.20678 13.5674 3.08692C13.4768 3.04079 13.3388 2.99807 13.0518 2.97462C12.756 2.95048 12.3718 2.9502 11.7998 2.9502L4.59961 2.9502ZM11.7529 5.06544C12.048 4.77519 12.5229 4.77843 12.8135 5.07325C13.104 5.36811 13.1002 5.84303 12.8057 6.1338C12.1278 6.8019 11.5807 7.32551 11.1211 7.7129C10.6678 8.09487 10.2489 8.38879 9.8252 8.55176C8.84812 8.92711 8.08513 8.51364 7.33106 8.08008C7.16407 7.98407 7.03456 7.97292 6.90137 8.00001C6.74035 8.03295 6.52999 8.13268 6.25 8.3379C5.97205 8.54174 5.67414 8.8117 5.3291 9.13672C4.99424 9.45219 4.61554 9.81978 4.21192 10.168C3.89827 10.4385 3.42387 10.4035 3.15332 10.0898C2.88279 9.7762 2.9178 9.3018 3.23145 9.03125C3.60266 8.71102 3.94695 8.37825 4.30078 8.04493C4.64416 7.72146 5.00233 7.3926 5.36328 7.12793C5.72207 6.86494 6.13662 6.62521 6.60157 6.53028C7.09436 6.42983 7.59554 6.50188 8.07813 6.7793C8.87411 7.23696 9.04302 7.24514 9.28711 7.15137C9.47369 7.07952 9.73871 6.91568 10.1543 6.56544C10.5644 6.21978 11.0747 5.73398 11.7529 5.06544Z" fill="currentColor"/>
</svg>
