<svg width="16" height="16" viewBox="0 0 16 16" fill="none" xmlns="http://www.w3.org/2000/svg">
<path d="M6.6668 9.3335L9.33346 9.3335M4.00016 6.66683L4.0335 6.66683M6.66683 6.66683L6.70016 6.66683M9.3335 6.66683L9.36683 6.66683M12.0002 6.66683L12.0335 6.66683M12.0002 9.3335L12.0335 9.3335M4.00016 9.3335L4.0335 9.3335M4.16683 6.66683C4.16683 6.75888 4.09221 6.8335 4.00016 6.8335C3.90811 6.8335 3.8335 6.75888 3.8335 6.66683C3.8335 6.57478 3.90811 6.50016 4.00016 6.50016C4.09221 6.50016 4.16683 6.57478 4.16683 6.66683ZM6.8335 6.66683C6.8335 6.75888 6.75888 6.8335 6.66683 6.8335C6.57478 6.8335 6.50016 6.75888 6.50016 6.66683C6.50016 6.57478 6.57478 6.50016 6.66683 6.50016C6.75888 6.50016 6.8335 6.57478 6.8335 6.66683ZM9.50016 6.66683C9.50016 6.75888 9.42554 6.8335 9.3335 6.8335C9.24145 6.8335 9.16683 6.75888 9.16683 6.66683C9.16683 6.57478 9.24145 6.50016 9.3335 6.50016C9.42554 6.50016 9.50016 6.57478 9.50016 6.66683ZM12.1668 6.66683C12.1668 6.75888 12.0922 6.8335 12.0002 6.8335C11.9081 6.8335 11.8335 6.75888 11.8335 6.66683C11.8335 6.57478 11.9081 6.50016 12.0002 6.50016C12.0922 6.50016 12.1668 6.57478 12.1668 6.66683ZM12.1668 9.3335C12.1668 9.42554 12.0922 9.50016 12.0002 9.50016C11.9081 9.50016 11.8335 9.42554 11.8335 9.3335C11.8335 9.24145 11.9081 9.16683 12.0002 9.16683C12.0922 9.16683 12.1668 9.24145 12.1668 9.3335ZM4.16683 9.3335C4.16683 9.42554 4.09221 9.50016 4.00016 9.50016C3.90811 9.50016 3.8335 9.42554 3.8335 9.3335C3.8335 9.24145 3.90811 9.16683 4.00016 9.16683C4.09221 9.16683 4.16683 9.24145 4.16683 9.3335ZM6.00016 12.6668L10.0002 12.6668C11.5547 12.6668 12.3319 12.6668 12.9347 12.3858C13.5739 12.0877 14.0877 11.5739 14.3858 10.9347C14.6668 10.3319 14.6668 9.55466 14.6668 8.00016V8.00016C14.6668 6.44566 14.6668 5.66841 14.3858 5.06564C14.0877 4.42642 13.5739 3.91265 12.9347 3.61457C12.3319 3.3335 11.5547 3.3335 10.0002 3.3335L6.00016 3.3335C4.44566 3.3335 3.66841 3.3335 3.06564 3.61457C2.42642 3.91265 1.91265 4.42642 1.61457 5.06564C1.3335 5.66841 1.3335 6.44566 1.3335 8.00016V8.00016C1.3335 9.55466 1.33349 10.3319 1.61457 10.9347C1.91265 11.5739 2.42641 12.0877 3.06564 12.3858C3.66841 12.6668 4.44566 12.6668 6.00016 12.6668Z" stroke="#2F384C" stroke-width="1.5" stroke-linecap="round" stroke-linejoin="round"/>
</svg>
