<svg width="16" height="16" viewBox="0 0 16 16" fill="none" xmlns="http://www.w3.org/2000/svg">
<path d="M6.66683 7.00016L6.66683 6.66683C6.66683 5.93045 7.26378 5.3335 8.00016 5.3335C8.73654 5.3335 9.3335 5.93045 9.3335 6.66683L9.3335 6.74771C9.3335 7.12278 9.1845 7.48249 8.91928 7.74771L8.00016 8.66683M8.33349 10.6668C8.33349 10.8509 8.18426 11.0002 8.00016 11.0002C7.81607 11.0002 7.66683 10.8509 7.66683 10.6668M8.33349 10.6668C8.33349 10.4827 8.18426 10.3335 8.00016 10.3335C7.81607 10.3335 7.66683 10.4827 7.66683 10.6668M8.33349 10.6668L7.66683 10.6668M14.6668 8.00016C14.6668 11.6821 11.6821 14.6668 8.00016 14.6668C4.31826 14.6668 1.33349 11.6821 1.33349 8.00016C1.3335 4.31826 4.31826 1.3335 8.00016 1.3335C11.6821 1.3335 14.6668 4.31827 14.6668 8.00016Z" stroke="#2F384C" stroke-width="1.5" stroke-linecap="round" stroke-linejoin="round"/>
</svg>
