<svg width="16" height="16" viewBox="0 0 16 16" fill="none" xmlns="http://www.w3.org/2000/svg">
<g clip-path="url(#clip0_1649_67342)">
<path d="M2.13317 12.0002C1.25639 11.4901 0.666502 10.5369 0.666502 9.4451C0.666503 8.07038 1.60174 6.91531 2.86731 6.58814C2.86677 6.5573 2.8665 6.5264 2.8665 6.49543C2.8665 3.64457 5.16478 1.3335 7.99984 1.3335C10.4139 1.3335 12.4388 3.00915 12.9869 5.26689C14.3595 5.79986 15.3332 7.13944 15.3332 8.70769C15.3332 9.91397 14.7571 10.985 13.8665 11.6576M7.99984 14.6668L7.99984 8.66683M7.99984 8.66683L5.6665 11.0002M7.99984 8.66683L10.3332 11.0002" stroke="currentColor" stroke-width="1.5" stroke-linecap="round" stroke-linejoin="round"/>
</g>
<defs>
<clipPath id="clip0_1649_67342">
<rect width="16" height="16" fill="currentColor"/>
</clipPath>
</defs>
</svg>
