<svg width="16" height="16" viewBox="0 0 16 16" fill="none" xmlns="http://www.w3.org/2000/svg">
<path d="M11.333 6.66667C11.7315 6.93281 11.9997 7.43026 11.9997 8C11.9997 8.23883 11.9526 8.46496 11.8685 8.66667M11.9997 4C13.1953 4.79843 13.9997 6.29077 13.9997 8C13.9997 8.71649 13.8583 9.39487 13.6061 10C13.5086 10.2338 13.3945 10.4567 13.2657 10.6667M9.33301 9.33333L9.33301 10.4611C9.33301 11.9 9.33301 12.6194 9.15516 12.9283C8.80374 13.5386 8.03825 13.7704 7.4073 13.4575C7.08799 13.2991 6.68892 12.7005 5.89079 11.5033C5.73308 11.2668 5.65423 11.1485 5.55878 11.0537C5.37432 10.8706 5.14038 10.7454 4.88571 10.6935C4.75393 10.6667 4.61177 10.6667 4.32746 10.6667L3.46634 10.6667C2.71961 10.6667 2.34624 10.6667 2.06102 10.5213C1.81014 10.3935 1.60617 10.1895 1.47833 9.93865C1.33301 9.65344 1.33301 9.28007 1.33301 8.53333L1.33301 7.46667C1.33301 6.71993 1.33301 6.34656 1.47833 6.06135C1.60616 5.81046 1.81014 5.60649 2.06102 5.47866C2.34624 5.33333 2.71941 5.33333 3.46575 5.33333C3.63427 5.33333 3.8123 5.33333 3.99968 5.33333L4.32746 5.33333C4.61177 5.33333 4.75393 5.33333 4.88571 5.30647C4.99505 5.28419 5.10056 5.24839 5.19998 5.20031M9.33301 9.33333L5.19998 5.20031M9.33301 9.33333L13.9997 14M1.99967 2L5.19998 5.20031M6.44812 3.66667C6.89522 3.01263 7.17277 2.65882 7.4073 2.54252C8.03825 2.22962 8.80374 2.46139 9.15516 3.07172C9.33301 3.38061 9.33301 4.10003 9.33301 5.53888L9.33301 6.66667" stroke="#1087FF" stroke-width="1.5" stroke-linecap="round" stroke-linejoin="round"/>
</svg>
