<svg xmlns="http://www.w3.org/2000/svg" width="20" height="20" viewBox="0 0 20 20" fill="none">
    <path d="M15.5498 2C16.0973 2 16.5538 1.99899 16.9248 2.0293C17.3044 2.06035 17.6611 2.12817 17.9981 2.29981C18.5153 2.56347 18.9366 2.98464 19.2002 3.50196C19.3718 3.83904 19.4397 4.19554 19.4707 4.5752C19.501 4.94632 19.5 5.40254 19.5 5.9502V13.5498C19.5 14.0975 19.501 14.5537 19.4707 14.9248C19.4397 15.3045 19.3718 15.661 19.2002 15.9981C18.9366 16.5154 18.5153 16.9365 17.9981 17.2002C17.6611 17.3718 17.3044 17.4397 16.9248 17.4707C16.5538 17.501 16.0973 17.5 15.5498 17.5H4.9502C4.40276 17.5 3.94624 17.501 3.5752 17.4707C3.19561 17.4397 2.83899 17.3718 2.50196 17.2002C1.98458 16.9366 1.56347 16.5154 1.29981 15.9981C1.1281 15.6609 1.06033 15.3045 1.0293 14.9248C0.998979 14.5537 1 14.0975 1 13.5498V5.9502C1 5.40252 0.998979 4.94633 1.0293 4.5752C1.06033 4.19548 1.1281 3.83909 1.29981 3.50196C1.56347 2.9846 1.98458 2.56343 2.50196 2.29981C2.83899 2.12824 3.19561 2.06032 3.5752 2.0293C3.94624 1.99902 4.40276 2 4.9502 2H15.5498ZM4.9502 3.5C4.37808 3.5 3.99308 3.50028 3.69727 3.52442C3.41068 3.54785 3.27317 3.59066 3.18262 3.63672C2.94757 3.75652 2.75656 3.9476 2.63672 4.18262C2.59059 4.27316 2.54788 4.4103 2.52442 4.69727C2.50024 4.99315 2.5 5.37777 2.5 5.9502V13.5498C2.5 14.1222 2.50024 14.5069 2.52442 14.8027C2.54788 15.0897 2.59059 15.2268 2.63672 15.3174C2.75656 15.5524 2.94757 15.7435 3.18262 15.8633C3.27317 15.9093 3.41068 15.9522 3.69727 15.9756C3.99308 15.9997 4.37808 16 4.9502 16H15.5498C16.122 16 16.5069 15.9998 16.8027 15.9756C17.0894 15.9521 17.2269 15.9094 17.3174 15.8633C17.5523 15.7434 17.7435 15.5524 17.8633 15.3174C17.9094 15.2268 17.9521 15.0895 17.9756 14.8027C17.9998 14.5069 18 14.1222 18 13.5498V5.9502C18 5.3778 17.9998 4.99314 17.9756 4.69727C17.9521 4.41047 17.9094 4.27316 17.8633 4.18262C17.7435 3.94763 17.5523 3.75656 17.3174 3.63672C17.2269 3.59062 17.0894 3.54789 16.8027 3.52442C16.5069 3.50025 16.122 3.5 15.5498 3.5H4.9502ZM14.8223 6.46582C15.1173 6.17528 15.5921 6.17877 15.8828 6.47364C16.1734 6.76864 16.1699 7.24347 15.875 7.53418C15.0274 8.36961 14.3487 9.01899 13.7803 9.49805C13.2179 9.972 12.7133 10.3234 12.2129 10.5156C11.083 10.9495 10.2039 10.4826 9.25586 9.9375C9.00753 9.79479 8.80047 9.77323 8.58887 9.81641C8.34943 9.86531 8.06149 10.0073 7.70118 10.2715C7.34316 10.534 6.96361 10.8788 6.53223 11.2852C6.11114 11.6819 5.64227 12.1365 5.14161 12.5684C4.82796 12.8388 4.35354 12.8039 4.08301 12.4902C3.81255 12.1766 3.84758 11.7022 4.16114 11.4316C4.62941 11.0277 5.06382 10.6079 5.50391 10.1934C5.93358 9.78859 6.37338 9.38493 6.81446 9.06153C7.2533 8.73978 7.74557 8.45764 8.28907 8.34668C8.86028 8.23014 9.43994 8.31251 10.0039 8.63672C10.9935 9.20571 11.2782 9.26745 11.6748 9.11524C11.9378 9.01422 12.2886 8.79297 12.8135 8.35059C13.3323 7.9133 13.9744 7.30159 14.8223 6.46582Z" fill="#2F384C"/>
</svg>