<svg width="226" height="208" viewBox="0 0 226 208" fill="none" xmlns="http://www.w3.org/2000/svg">
<g clip-path="url(#clip0_254_87407)">
<path d="M56.246 170.91L1.37646 198.661L129.96 207.912L200.695 165.448L169.579 163.422L71.4096 156.727L56.246 170.91Z" fill="#ACB2B9" stroke="#D6D6D6" stroke-width="0.25" stroke-miterlimit="10"/>
<path d="M151.873 108.978C134.518 101.577 113.833 88.6268 93.8484 65.8975C65.5372 101.049 42.3973 116.994 21.2734 121.399C43.2738 194.433 121.809 203.683 121.809 203.683C121.809 203.683 154.766 199.278 190.177 128.8" fill="#303338"/>
<path d="M190.089 128.799C189.826 128.623 187.197 133.116 182.639 141.221C177.73 149.15 170.893 160.779 160.112 173.553C154.678 179.896 148.367 186.592 140.479 192.494C139.514 193.199 138.463 193.904 137.498 194.697C136.447 195.402 135.395 196.018 134.343 196.723C133.291 197.428 132.152 197.957 131.012 198.573C129.873 199.19 128.733 199.719 127.594 200.247C126.98 200.511 126.367 200.776 125.841 200.952C125.227 201.128 124.614 201.392 124 201.569C123.387 201.745 122.773 201.921 122.16 202.097C121.984 202.097 121.809 202.185 121.721 202.185C121.721 202.185 121.721 202.185 121.634 202.185L120.669 202.009C118.04 201.569 115.323 201.04 112.606 200.335C101.825 197.692 90.6052 193.728 79.8241 188.09C68.9554 182.451 58.4373 175.051 49.3216 165.713C47.3933 163.863 45.7279 161.836 43.9749 159.986C43.0984 159.017 42.3095 157.96 41.5207 156.991C40.7318 156.022 39.8553 154.965 39.1541 153.907L36.8752 150.736C36.0863 149.679 35.4728 148.533 34.7715 147.476C33.3691 145.274 32.142 142.983 30.8273 140.693L30.2137 139.636L29.6878 138.49L28.636 136.288L27.5842 134.085C27.2336 133.381 26.9706 132.588 26.62 131.883C26.0065 130.385 25.3929 128.888 24.867 127.39C24.3411 125.892 23.8152 124.395 23.3769 122.897L23.2893 122.721L24.2534 122.456C25.8312 122.104 27.4089 121.575 28.8989 121.135C30.4767 120.694 31.8791 119.99 33.4568 119.461C34.9469 118.844 36.3493 118.228 37.8393 117.523C43.5366 114.792 48.7957 111.532 53.6165 108.008C54.2301 107.568 54.8436 107.127 55.4572 106.687C56.0707 106.246 56.5966 105.806 57.2102 105.365C58.3497 104.484 59.5768 103.515 60.7162 102.634C62.9075 100.696 65.1864 98.9341 67.2024 96.9079C75.6169 89.2433 82.8919 81.2264 89.2904 73.5618C90.7805 71.7118 92.2706 69.9498 93.673 68.1878L93.7606 68.0116L93.8483 67.9235C93.8483 67.9235 93.8483 67.9235 93.9359 67.9235L94.2865 68.2759C95.0754 69.1569 95.8643 70.0379 96.6531 70.8308C99.8962 74.1785 103.052 77.3501 106.207 80.1692C118.741 91.622 130.399 98.846 138.638 103.163C142.758 105.365 146.088 106.775 148.367 107.656C150.646 108.537 151.873 108.889 151.961 108.801C152.049 108.537 147.403 106.511 139.339 101.841C131.363 97.1722 120.056 89.86 107.872 78.3191C104.805 75.5 101.737 72.3285 98.6691 68.9807C97.8802 68.0997 97.0914 67.3069 96.3902 66.4259C95.689 65.7211 95.0754 64.9282 94.3742 64.2234L94.1113 63.9591L93.9359 63.7829L93.8483 63.6948L93.7606 63.7829L93.2347 64.3996L92.1829 65.633C90.5175 67.5711 88.9398 69.5974 87.1868 71.6237C80.7006 79.2001 73.5133 86.9528 65.1864 94.4411C63.1705 96.3793 60.9792 98.1412 58.7879 99.9913C57.6484 100.872 56.509 101.753 55.3695 102.634C54.756 103.075 54.2301 103.515 53.6165 103.956C53.0029 104.396 52.3894 104.837 51.8635 105.189C47.1303 108.537 41.9589 111.708 36.5246 114.263C35.1222 114.88 33.7197 115.497 32.3173 116.113C30.9149 116.642 29.4248 117.259 28.0224 117.699C26.5324 118.14 25.1299 118.668 23.5522 118.932C22.3251 119.197 21.098 119.549 19.8709 119.813L19.2573 119.99H19.082C19.082 119.99 19.082 120.078 19.082 120.166L19.1697 120.43L19.5203 121.575L20.2215 123.69C20.7474 125.275 21.2733 126.773 21.7992 128.359C22.4128 129.857 23.0263 131.442 23.6399 132.94C23.9905 133.733 24.2534 134.526 24.604 135.231L25.6559 137.521L26.7077 139.812L27.2336 140.957L27.8471 142.102C29.1619 144.481 30.389 146.86 31.8791 149.15C32.5803 150.295 33.2815 151.441 34.0703 152.498L36.3493 155.758C37.1381 156.903 37.927 157.872 38.8035 158.929C39.68 159.986 40.4689 161.043 41.3454 162.012C43.0984 164.039 44.8514 166.065 46.8674 168.003C56.3337 177.606 67.2024 185.182 78.2464 190.909C89.3781 196.635 100.773 200.688 111.817 203.242C114.622 203.859 117.339 204.476 120.144 204.828L121.195 205.004L121.634 205.093C121.809 205.093 121.984 205.004 122.072 205.004C122.335 205.004 122.423 204.916 122.685 204.916C123.387 204.74 124.088 204.564 124.789 204.3C125.49 204.123 126.104 203.859 126.805 203.595C127.419 203.331 128.12 203.066 128.733 202.802C129.96 202.185 131.188 201.657 132.415 201.04C133.554 200.423 134.781 199.807 135.833 199.014C136.973 198.309 138.024 197.604 139.076 196.899C140.128 196.107 141.18 195.402 142.144 194.609C150.208 188.442 156.606 181.57 161.953 175.051C172.646 161.924 179.308 149.943 183.866 141.838C185.969 137.697 187.547 134.438 188.599 132.235C189.738 130.033 190.264 128.888 190.089 128.799Z" fill="#ACB2B9"/>
<path d="M193.42 118.756C193.42 118.756 189.037 118.844 181.674 117.699L193.42 118.756Z" fill="#F2F2F2"/>
<path d="M181.675 117.699C181.499 118.845 183.778 119.726 186.934 120.078C187.109 120.078 187.284 120.078 187.372 120.078C187.547 120.078 187.722 120.078 187.81 120.166C190.966 120.342 193.42 119.902 193.42 118.757C193.42 117.699 191.141 117.171 188.161 116.818C187.985 116.818 187.898 116.818 187.722 116.818C187.547 116.818 187.459 116.818 187.284 116.73C184.216 116.554 181.85 116.642 181.675 117.699Z" fill="#ACB2B9"/>
<path d="M42.2217 132.676C55.3693 129.152 66.0627 119.814 75.8796 110.475L42.2217 132.676Z" fill="#F2F2F2"/>
<path d="M75.7922 110.475C75.6169 110.299 73.9515 111.532 71.4096 113.735C68.8678 115.937 65.2741 119.021 61.0668 122.104C60.6286 122.456 60.1903 122.721 59.8397 123.073C59.4014 123.337 58.9632 123.69 58.5249 123.954C54.23 126.949 50.1104 129.064 47.0427 130.473C43.9749 131.795 42.0466 132.412 42.1342 132.764C42.2219 133.028 44.2378 132.764 47.4809 131.619C50.724 130.473 55.0189 128.447 59.4891 125.364C59.9274 125.011 60.3656 124.747 60.8039 124.483C61.2421 124.13 61.6804 123.866 62.1186 123.514C66.4135 120.342 69.8319 117.082 72.2861 114.704C74.6527 112.237 75.9675 110.651 75.7922 110.475Z" fill="#ACB2B9"/>
<path d="M50.2856 138.491C65.4493 133.557 78.4216 122.28 85.4337 107.92L50.2856 138.491Z" fill="#F2F2F2"/>
<path d="M85.4339 107.92C85.171 107.744 84.0315 109.859 81.8402 113.118C79.649 116.378 76.3182 120.695 71.7604 124.835C71.3221 125.276 70.8839 125.628 70.4456 126.069C70.0074 126.421 69.4814 126.862 69.0432 127.214C64.31 131.178 59.4892 133.821 56.0708 135.583C52.5648 137.257 50.2859 138.138 50.3735 138.49C50.4612 138.667 52.8278 138.226 56.5091 136.729C60.1904 135.231 65.1865 132.588 70.095 128.535C70.6209 128.095 71.0592 127.742 71.5851 127.302C72.0233 126.862 72.5492 126.421 72.9875 126.069C77.633 121.752 80.9637 117.171 82.9797 113.735C84.908 110.299 85.6969 108.008 85.4339 107.92Z" fill="#ACB2B9"/>
<path d="M166.774 108.977L166.599 108.801V108.977H166.774ZM129.259 150.296C129.61 150.824 130.486 151 131.1 150.472C132.59 149.238 140.654 142.455 147.754 134.966C147.578 134.966 147.052 134.438 146.264 133.909L147.14 132.676C132.502 147.565 127.682 147.917 129.259 150.296ZM147.228 132.588C152.662 126.597 157.571 122.016 166.423 108.889L162.216 104.661C159.148 110.475 155.73 116.113 151.698 121.399L153.889 122.897L147.228 132.588Z" fill="#ACB2B9"/>
<path d="M187.196 62.1976C182.638 84.5745 170.367 110.387 148.279 134.438H148.455C159.849 133.733 172.559 122.457 179.22 112.942C180.447 111.444 181.587 109.683 182.638 108.009V107.832C183.515 106.335 184.304 104.749 185.18 103.251C189.388 95.5868 192.455 86.5127 193.682 76.4695L190.439 76.8219L194.033 72.8574C194.91 62.1095 194.033 50.4805 190.264 37.8824C190.089 37.53 189.563 37.3539 189.212 37.7062C186.67 39.7325 184.304 45.8994 181.587 54.2687C182.288 56.8236 183.252 59.3784 184.129 62.1095C182.638 61.2285 181.411 60.0832 180.184 59.026C176.415 70.4788 171.857 85.015 165.196 99.0226L166.861 108.449C168.702 105.718 170.806 102.106 172.296 99.5512C180.973 84.4864 186.057 66.4263 187.547 60.6118C187.196 61.3166 187.021 62.0214 187.196 62.1976Z" fill="#ACB2B9"/>
<path d="M129.785 149.767C129.522 149.591 129.084 149.767 128.558 150.119C127.944 150.472 127.243 151 126.279 151.529C125.315 152.057 124 152.674 122.51 153.291C121.02 153.996 119.267 154.7 117.514 156.022C117.163 156.286 116.813 156.55 116.462 156.903C116.111 157.167 115.849 157.52 115.498 157.872C115.06 158.312 114.797 158.841 114.534 159.281C114.271 159.81 114.008 160.251 113.833 160.691C113.482 161.572 113.219 162.365 112.868 163.07C112.343 164.391 111.554 165.36 110.765 166.153C109.275 167.739 107.96 168.356 108.048 168.972C108.135 169.237 108.574 169.325 109.275 169.237C109.976 169.149 111.115 168.796 112.255 168.003C113.394 167.21 114.621 166.065 115.586 164.391C116.024 163.598 116.374 162.717 116.725 162.013C116.9 161.66 117.076 161.308 117.251 160.955C117.514 160.691 117.689 160.339 117.952 160.074C118.127 159.81 118.39 159.634 118.653 159.37C118.916 159.193 119.179 158.929 119.442 158.753C120.757 157.696 122.335 156.903 123.825 156.11C125.315 155.317 126.63 154.436 127.594 153.555C128.646 152.674 129.259 151.793 129.61 151.088C129.96 150.384 129.96 149.943 129.785 149.767Z" fill="#ACB2B9"/>
<path d="M208.934 81.6672C209.197 81.6672 209.46 81.4029 209.635 81.0505C209.81 80.7862 210.073 80.3457 210.424 80.0814C210.775 79.8171 211.038 79.9052 211.3 79.9933C211.388 80.0814 211.476 80.1695 211.651 80.3457C211.826 80.5219 212.002 80.8743 212.089 81.3148C212.177 81.491 212.177 81.6672 212.177 81.7553C212.177 81.9315 212.265 82.0196 212.265 82.2839V82.4601V82.5482H212.089C211.914 82.5482 211.739 82.5482 211.563 82.4601C211.3 82.4601 211.038 82.372 210.775 82.2839C210.336 82.1958 210.073 82.0196 209.723 81.8434C209.46 81.8434 209.197 81.5791 208.934 81.6672C208.671 81.6672 208.496 81.9315 208.408 82.4601C208.32 82.9887 208.671 83.8697 209.46 84.5745C209.81 84.9268 210.336 85.1911 210.862 85.3673C211.125 85.4554 211.3 85.5435 211.563 85.6316L211.739 85.7197L212.089 85.8078C212.265 85.8078 212.528 85.8959 212.791 85.8959C213.667 85.984 214.631 85.6316 215.245 84.8388C215.508 84.4864 215.683 83.9578 215.771 83.4292C215.771 83.1649 215.771 82.9006 215.771 82.6363V82.2839V82.0196C215.771 81.7553 215.683 81.4029 215.595 81.1386C215.508 80.8743 215.42 80.61 215.332 80.2576C215.069 79.5529 214.719 78.8481 214.193 78.3195C213.667 77.7028 212.878 77.1742 212.002 77.0861C210.336 76.8218 208.934 77.879 208.496 78.8481C208.057 79.8171 208.145 80.61 208.233 81.1386C208.408 81.491 208.671 81.6672 208.934 81.6672Z" fill="#ACB2B9"/>
<path d="M1.55158 144.922C1.81454 144.922 2.07749 144.657 2.25279 144.305C2.42809 144.041 2.69105 143.6 3.04165 143.336C3.39225 143.072 3.65521 143.16 3.91816 143.248C4.00581 143.336 4.09346 143.424 4.26876 143.6C4.44406 143.776 4.61937 144.129 4.70702 144.569C4.79467 144.745 4.79467 144.922 4.79467 145.01C4.79467 145.186 4.88232 145.274 4.88232 145.538V145.714V145.803H4.70702C4.53172 145.803 4.35641 145.803 4.18111 145.714C3.91816 145.714 3.65521 145.626 3.39225 145.538C2.954 145.45 2.69105 145.274 2.34044 145.098C2.16514 145.01 1.90219 144.834 1.55158 144.922C1.28863 144.922 1.11333 145.186 1.02568 145.714C0.938026 146.243 1.28863 147.124 2.07749 147.829C2.42809 148.181 2.954 148.446 3.4799 148.622C3.74286 148.71 3.91816 148.798 4.18111 148.886L4.35641 148.974L4.70702 149.062C4.88232 149.062 5.14527 149.15 5.40822 149.15C6.28473 149.238 7.24889 148.886 7.86245 148.093C8.1254 147.741 8.30071 147.212 8.38836 146.684C8.38836 146.419 8.38836 146.155 8.38836 145.891V145.538V145.274C8.38836 145.01 8.30071 144.657 8.21305 144.393C8.1254 144.129 8.03775 143.864 7.9501 143.512C7.68715 142.807 7.33655 142.102 6.81064 141.574C6.28473 140.957 5.49588 140.429 4.61937 140.34C2.954 140.076 1.55158 141.133 1.11333 142.102C0.675073 143.072 0.762724 143.864 0.850375 144.393C1.02568 144.745 1.37628 144.922 1.55158 144.922Z" fill="#A8A8A8"/>
<path d="M131.012 54.885C131.275 54.885 131.538 54.6207 131.713 54.2683C131.889 54.004 132.151 53.5635 132.502 53.2992C132.853 53.0349 133.116 53.123 133.379 53.2111C133.466 53.2992 133.554 53.3873 133.729 53.5635C133.905 53.7397 134.08 54.0921 134.167 54.5326C134.255 54.7088 134.255 54.885 134.255 54.9731C134.255 55.1493 134.343 55.2374 134.343 55.5017V55.6779V55.766H134.167C133.992 55.766 133.817 55.766 133.642 55.6779C133.379 55.6779 133.116 55.5898 132.853 55.5017C132.414 55.4136 132.151 55.2374 131.801 55.0612C131.538 55.0612 131.275 54.885 131.012 54.885C130.749 54.885 130.574 55.1493 130.486 55.6779C130.398 56.2065 130.749 57.0874 131.538 57.7922C131.889 58.1446 132.414 58.4089 132.94 58.5851C133.203 58.6732 133.379 58.7613 133.642 58.8494L133.817 58.9375L134.167 59.0256C134.343 59.0256 134.606 59.1137 134.869 59.1137C135.745 59.2018 136.709 58.8494 137.323 58.0565C137.586 57.7041 137.761 57.1755 137.849 56.647C137.849 56.3827 137.849 56.1184 137.849 55.8541V55.5017V55.2374C137.849 54.9731 137.761 54.6207 137.674 54.3564C137.586 54.0921 137.498 53.8278 137.411 53.4754C137.148 52.7706 136.797 52.0658 136.271 51.5373C135.745 50.9206 134.956 50.392 134.08 50.3039C132.414 50.0396 131.012 51.0968 130.574 52.0658C130.136 53.0349 130.223 53.8278 130.311 54.3564C130.486 54.7969 130.749 54.9731 131.012 54.885Z" fill="#A8A8A8"/>
<path d="M142.758 14.0957C141.618 14.0957 141.18 16.122 141.092 18.7649C141.092 18.853 141.092 19.0292 141.092 19.1173C141.092 19.2054 141.092 19.3816 141.092 19.4697C141.18 22.1126 141.618 24.1389 142.758 24.1389C143.809 24.1389 144.335 22.1126 144.423 19.4697C144.423 19.3816 144.423 19.2054 144.423 19.1173C144.423 19.0292 144.423 18.853 144.423 18.7649C144.335 16.122 143.809 14.0957 142.758 14.0957Z" fill="#A8A8A8"/>
<path d="M181.149 0.176406C180.097 0.616897 179.834 1.32168 180.009 2.02647V2.11457V2.20267C180.36 2.90745 180.973 3.25984 182.025 2.81935C182.989 2.46696 183.34 1.67408 183.164 0.96929C183.164 0.96929 183.164 0.881192 183.077 0.881192V0.793093C182.814 0.0883072 182.113 -0.175987 181.149 0.176406Z" fill="#A8A8A8"/>
<path d="M54.5806 154.26C54.5806 155.405 55.1065 155.846 55.8077 155.934H55.8953H55.983C56.6842 155.846 57.2101 155.405 57.2101 154.26C57.2101 153.203 56.6842 152.674 55.983 152.586H55.8953H55.8077C55.1065 152.674 54.5806 153.203 54.5806 154.26Z" fill="#A8A8A8"/>
<path d="M0.762953 85.8078C0.412349 86.2483 0.412349 86.7769 0.762953 87.3936C1.11356 88.0102 1.90242 88.6269 2.86658 89.1555L3.12953 89.2436L3.39248 89.3317C4.44429 89.6841 5.40845 89.7722 6.10966 89.6841C6.81087 89.5079 7.24912 89.1555 7.33677 88.5388C7.51208 87.5698 6.28496 87.0412 4.7949 86.3364L4.53194 86.2483L4.26899 86.1602C2.77892 85.5435 1.46416 85.0149 0.762953 85.8078Z" fill="#A8A8A8"/>
<path d="M96.4779 52.2422C95.3384 52.2422 94.9002 53.2113 94.8125 54.4446C94.8125 54.5327 94.8125 54.5327 94.8125 54.6208C94.8125 54.7089 94.8125 54.7089 94.8125 54.797C94.9002 56.0304 95.3384 56.9995 96.4779 56.9995C97.5297 56.9995 98.0556 56.0304 98.1432 54.797C98.1432 54.7089 98.1432 54.7089 98.1432 54.6208C98.1432 54.5327 98.1432 54.5327 98.1432 54.4446C98.0556 53.2113 97.5297 52.2422 96.4779 52.2422Z" fill="#A8A8A8"/>
<path d="M222.695 128.448C223.134 129.505 223.835 129.769 224.536 129.505C224.536 129.505 224.624 129.505 224.624 129.417H224.711C225.325 129.064 225.675 128.448 225.325 127.39C224.974 126.421 224.185 126.157 223.484 126.333C223.484 126.333 223.396 126.333 223.396 126.421H223.309C222.608 126.774 222.257 127.478 222.695 128.448Z" fill="#A8A8A8"/>
<path d="M32.0545 24.1389C32.4051 25.196 33.7199 25.2841 35.2976 24.7555C35.3853 24.7555 35.4729 24.6674 35.5606 24.6674C35.6482 24.6674 35.7359 24.5794 35.8235 24.5794C37.3136 23.9627 38.2778 23.0817 37.9271 22.0245C37.5765 21.0554 36.2618 20.9673 34.6841 21.4078C34.5964 21.4078 34.5088 21.4959 34.4211 21.4959C34.3335 21.4959 34.2458 21.584 34.1582 21.584C32.6681 22.2007 31.7039 23.1698 32.0545 24.1389Z" fill="#A8A8A8"/>
<path d="M198.942 153.996C199.292 155.053 200.607 155.141 202.185 154.612C202.272 154.612 202.36 154.524 202.448 154.524C202.535 154.524 202.623 154.436 202.711 154.436C204.201 153.82 205.165 152.939 204.814 151.881C204.464 150.912 203.149 150.824 201.571 151.265C201.484 151.265 201.396 151.353 201.308 151.353C201.221 151.353 201.133 151.441 201.045 151.441C199.555 152.058 198.591 153.027 198.942 153.996Z" fill="#A8A8A8"/>
<path d="M72.8999 35.9439C72.8999 37.0892 73.7764 37.5297 74.8282 37.6178C74.9159 37.6178 74.9159 37.6178 75.0035 37.6178C75.0912 37.6178 75.0912 37.6178 75.1788 37.6178C76.2306 37.5297 77.1072 37.0892 77.1072 35.9439C77.1072 34.8867 76.2306 34.3581 75.1788 34.27C75.0912 34.27 75.0912 34.27 75.0035 34.27C74.9159 34.27 74.9159 34.27 74.8282 34.27C73.6888 34.3581 72.8999 34.8867 72.8999 35.9439Z" fill="#ACB2B9"/>
<path d="M37.8392 75.8527C38.9787 75.8527 39.4169 74.9718 39.5046 73.9146C39.5046 73.8265 39.5046 73.8265 39.5046 73.7384C39.5046 73.6503 39.5046 73.6503 39.5046 73.5622C39.4169 72.505 38.9787 71.624 37.8392 71.624C36.7874 71.624 36.2615 72.505 36.1738 73.5622C36.1738 73.6503 36.1738 73.6503 36.1738 73.7384C36.1738 73.8265 36.1738 73.8265 36.1738 73.9146C36.2615 74.9718 36.7874 75.8527 37.8392 75.8527Z" fill="#ACB2B9"/>
<path d="M8.03809 183.244C8.03809 184.389 10.0541 184.83 12.5959 184.918C12.6836 184.918 12.8589 184.918 12.9465 184.918C13.0342 184.918 13.2095 184.918 13.2971 184.918C15.9267 184.83 17.855 184.389 17.855 183.244C17.855 182.187 15.839 181.658 13.2971 181.57C13.2095 181.57 13.0342 181.57 12.9465 181.57C12.8589 181.57 12.6836 181.57 12.5959 181.57C9.96641 181.57 8.03809 182.187 8.03809 183.244Z" fill="#ACB2B9"/>
</g>
<defs>
<clipPath id="clip0_254_87407">
<rect width="225" height="208" fill="white" transform="translate(0.5)"/>
</clipPath>
</defs>
</svg>
