<svg width="226" height="208" viewBox="0 0 226 208" fill="none" xmlns="http://www.w3.org/2000/svg">
<g clip-path="url(#clip0_254_87407)">
<path d="M31.6941 34.047C31.9428 34.2125 32.2744 34.1297 32.6889 33.9643C33.1034 33.7988 33.7666 33.6333 34.3469 33.6333C34.9272 33.6333 35.4246 33.9643 35.7563 34.4607C35.8392 34.7089 35.9221 34.9571 35.8392 35.3708C35.7563 35.7845 35.5905 36.281 35.3417 36.7774C35.2588 36.9429 35.093 37.1911 35.0101 37.3566C34.8443 37.5221 34.7614 37.6876 34.5956 37.9358C34.3469 38.184 34.1811 38.4322 34.0153 38.5977L33.9324 38.6804C33.9324 38.6804 33.9324 38.6804 33.8495 38.6804C33.7666 38.6804 33.8495 38.7632 33.6837 38.515C33.5179 38.3495 33.3521 38.184 33.1863 37.9358C33.0205 37.7703 32.8547 37.5221 32.6889 37.3566C32.4402 37.0256 32.2744 36.6947 32.1086 36.3637C31.8599 35.7845 31.777 35.2881 31.777 34.7917C31.8599 34.6262 31.8599 34.2125 31.6941 34.047C31.5283 33.8815 31.1138 33.9643 30.6993 34.378C30.2018 34.7917 29.7873 35.7845 29.9531 37.0256C30.036 37.6048 30.2019 38.2667 30.4506 38.8459C30.6164 39.1769 30.6993 39.4251 30.8651 39.6733C31.0309 39.9215 31.1967 40.2525 31.4454 40.5834C31.6112 40.8317 32.1915 41.4108 32.6889 41.6591C33.2692 41.99 33.8495 42.0728 34.5127 41.9073C34.8443 41.8245 35.093 41.7418 35.4246 41.4936C35.5905 41.4108 35.6734 41.3281 35.8392 41.1626L36.005 40.9971L36.1708 40.9144C36.5024 40.5834 36.7511 40.2525 36.9998 40.0043C37.1656 39.756 37.4143 39.4251 37.5801 39.1769C37.7459 38.8459 37.9117 38.5977 38.0775 38.2667C38.492 37.4393 38.7407 36.6119 38.8236 35.7018C38.9065 34.7917 38.6578 33.716 38.0775 32.8886C37.4972 32.0613 36.7511 31.6476 36.005 31.3993C35.1759 31.1511 34.4298 31.2339 33.8495 31.3993C32.6889 31.7303 32.0257 32.475 31.6941 32.9714C31.4454 33.5506 31.4454 33.8815 31.6941 34.047Z" fill="#ACB2B9"/>
<path fill-rule="evenodd" clip-rule="evenodd" d="M111.694 59.5311C108.047 59.6138 104.316 59.5311 100.668 59.2001C99.342 59.0346 98.0156 59.0346 96.6892 58.7864C91.9638 58.2072 87.4042 56.9661 82.8446 55.6423C80.855 54.9804 78.8654 54.4012 76.8757 53.5738C75.6322 53.0774 74.3887 52.6637 73.1451 52.0845C71.9016 51.5053 70.741 50.9261 69.5804 50.2642C68.8343 49.8505 69.083 49.685 69.8291 49.8505C70.5752 49.9333 71.8187 50.1815 73.2281 50.8434C78.2021 52.9946 83.2591 54.7322 88.4819 56.056C90.0571 56.387 91.7151 56.7179 93.2902 57.0489C94.9483 57.2971 96.6063 57.4626 98.2643 57.7108C101.912 58.0418 105.56 58.29 109.207 58.2072C111.446 58.2072 113.684 58.0418 115.922 57.8763C119.321 57.5453 122.72 57.1316 126.036 56.387C127.363 56.1387 128.606 55.8078 129.85 55.4768C131.093 55.1459 132.337 54.7322 133.58 54.3185C134.161 54.153 134.658 53.9875 135.238 53.822C137.228 53.0774 137.974 53.0774 138.554 53.3256C138.72 53.4083 138.803 53.4083 138.886 53.4911C139.135 53.6565 138.472 54.2357 136.979 54.8149C132.586 56.5524 127.694 57.6281 122.72 58.4555C119.156 59.1174 115.425 59.3656 111.694 59.5311Z" fill="#ACB2B9"/>
<path fill-rule="evenodd" clip-rule="evenodd" d="M119.57 175.78C122.223 175.615 124.875 175.367 127.528 174.953L130.43 174.456C133.829 173.877 137.228 173.215 140.544 172.305C142.036 171.892 143.445 171.395 144.938 170.899C146.761 170.237 148.585 169.492 150.409 168.747C150.989 168.499 150.907 168.665 150.492 168.996C150.078 169.327 149.249 169.906 148.254 170.402C144.606 172.14 140.71 173.298 136.813 174.208C134.409 174.705 132.005 175.284 129.518 175.698C126.865 176.111 124.129 176.525 121.394 176.773C119.736 176.939 118.078 177.104 116.42 177.104C113.85 177.27 111.363 177.27 108.793 177.352C106.803 177.352 104.896 177.435 102.989 177.352C102.575 177.352 102.16 177.352 101.746 177.352C100.171 177.27 99.6734 177.104 99.3418 176.856C99.2589 176.773 99.176 176.773 99.0931 176.69C98.9273 176.525 99.5905 176.36 100.751 176.277C104.233 176.111 107.798 176.194 111.445 176.029C114.181 176.111 116.917 175.946 119.57 175.78Z" fill="#ACB2B9"/>
<path fill-rule="evenodd" clip-rule="evenodd" d="M143.197 156.998C144.44 157.246 145.684 157.577 146.927 157.826C147.342 157.908 147.839 157.991 148.254 158.157C149.829 158.57 151.404 159.067 152.896 159.729C153.559 160.06 154.223 160.308 154.886 160.721C155.3 160.97 155.715 161.218 156.046 161.632C156.378 162.045 156.544 162.79 156.295 163.286C156.129 163.617 156.046 163.452 155.881 163.121C155.798 162.79 155.466 162.624 155.3 162.376C154.886 161.88 154.057 161.466 153.228 161.135C152.399 160.804 151.57 160.473 150.741 160.06C149.746 159.646 148.585 159.398 147.425 159.149C146.181 158.818 144.938 158.57 143.777 158.322L141.456 157.826C140.295 157.577 139.134 157.412 137.974 157.246C137.062 157.164 136.15 157.081 135.321 156.998C135.155 156.998 134.906 156.998 134.741 156.998C133.995 156.915 133.746 156.833 133.663 156.502C133.663 156.419 133.58 156.336 133.58 156.254C133.58 156.005 133.829 155.84 134.409 155.84C136.067 155.84 137.725 156.005 139.466 156.254C140.71 156.502 141.953 156.75 143.197 156.998Z" fill="#ACB2B9"/>
<path fill-rule="evenodd" clip-rule="evenodd" d="M86.0778 157.081C86.6581 156.916 87.3213 156.75 87.9016 156.502C88.1503 156.419 88.3161 156.336 88.5649 156.254C89.3939 156.088 90.14 155.84 90.969 155.757C91.3835 155.675 91.7151 155.675 92.0467 155.592C92.5441 155.509 92.9586 155.509 93.456 155.592C93.7047 155.592 93.3731 156.171 92.8757 156.254C91.9638 156.336 91.1348 156.585 90.2229 156.667C89.6426 156.75 89.1452 156.916 88.5649 157.081C87.9845 157.247 87.3213 157.495 86.741 157.66C86.4094 157.826 85.9949 157.909 85.6633 158.074C85.083 158.24 84.5027 158.488 84.0053 158.653C83.5908 158.819 83.1763 158.984 82.7617 159.15C82.6788 159.15 82.5959 159.232 82.513 159.232C82.1814 159.315 82.0156 159.315 81.8498 159.15C81.8498 159.067 81.7669 159.067 81.7669 158.984C81.684 158.819 81.7669 158.653 82.0156 158.488C82.7617 158.074 83.5079 157.743 84.254 157.495C84.8343 157.412 85.4146 157.247 86.0778 157.081Z" fill="#ACB2B9"/>
<path fill-rule="evenodd" clip-rule="evenodd" d="M134.989 159.894C134.989 159.894 139.051 160.39 140.544 161.632C142.368 163.121 129.103 169.409 117.497 168.416L135.238 162.873L134.989 159.894Z" fill="#ACB2B9"/>
<path fill-rule="evenodd" clip-rule="evenodd" d="M112.275 104.624C111.943 104.79 111.694 105.038 111.528 105.369C111.363 105.7 111.28 106.031 111.28 106.362C111.28 106.527 111.28 106.693 111.363 106.941C111.363 107.024 111.363 107.106 111.446 107.189C111.611 107.52 111.777 107.851 112.026 108.099C112.606 108.596 113.352 108.844 114.098 108.513C114.181 108.43 114.347 108.348 114.43 108.265C114.596 108.099 114.679 107.934 114.762 107.686C114.845 107.52 114.845 107.437 114.845 107.272C114.845 107.189 114.845 107.024 114.845 106.941C114.762 106.279 114.347 105.7 113.767 105.369C113.518 105.203 113.187 105.203 113.021 105.286C112.772 105.369 112.523 105.534 112.44 105.783C112.358 106.031 112.275 106.279 112.358 106.527C112.44 106.775 112.606 106.941 112.855 107.106C112.855 107.106 112.938 107.106 112.938 107.189C112.855 107.106 112.772 107.106 112.772 107.024C112.855 107.106 112.938 107.189 113.021 107.272C112.938 107.189 112.938 107.106 112.855 107.106C112.938 107.189 113.021 107.272 113.021 107.355C113.021 107.272 112.938 107.189 112.938 107.106C112.938 107.189 113.021 107.272 113.021 107.437C113.021 107.355 113.021 107.272 113.021 107.189C113.021 107.272 113.021 107.272 113.021 107.355C113.021 107.272 113.104 107.189 113.104 107.106C113.104 107.106 113.104 107.189 113.021 107.189C113.104 107.106 113.104 107.024 113.187 107.024C113.187 107.024 113.187 107.106 113.104 107.106C113.187 107.024 113.269 107.024 113.269 106.941C113.269 106.941 113.187 106.941 113.187 107.024C113.269 107.024 113.352 106.941 113.435 106.941H113.352C113.435 106.941 113.518 106.941 113.601 106.941C113.518 106.941 113.518 106.941 113.435 106.941C113.518 106.941 113.601 106.941 113.684 106.941C113.601 106.941 113.518 106.941 113.435 106.858C113.518 106.858 113.601 106.941 113.684 106.941C113.601 106.858 113.435 106.858 113.352 106.775C113.435 106.858 113.518 106.858 113.518 106.941C113.435 106.858 113.352 106.858 113.352 106.775C113.435 106.858 113.435 106.941 113.518 106.941C113.435 106.858 113.435 106.775 113.352 106.693C113.352 106.775 113.435 106.858 113.435 106.941C113.435 106.858 113.352 106.775 113.352 106.61C113.352 106.693 113.352 106.775 113.352 106.858C113.352 106.775 113.352 106.61 113.352 106.527C113.352 106.61 113.352 106.693 113.352 106.775C113.352 106.693 113.435 106.527 113.435 106.445C113.435 106.527 113.352 106.61 113.352 106.693C113.352 106.61 113.435 106.527 113.518 106.445C113.435 106.527 113.435 106.61 113.352 106.61C113.435 106.527 113.435 106.445 113.518 106.445C113.435 106.527 113.352 106.527 113.352 106.61C113.352 106.61 113.435 106.61 113.435 106.527C113.684 106.362 113.85 106.196 113.933 105.948C114.016 105.7 113.933 105.369 113.85 105.203C113.684 104.955 113.518 104.79 113.269 104.707C112.772 104.459 112.523 104.542 112.275 104.624Z" fill="#ACB2B9"/>
<path fill-rule="evenodd" clip-rule="evenodd" d="M119.155 116.787C119.155 116.787 119.072 116.787 118.99 116.869C119.072 116.869 119.155 116.787 119.238 116.787C119.155 116.787 119.072 116.787 118.99 116.787C119.072 116.787 119.155 116.787 119.238 116.869C119.155 116.869 119.072 116.787 118.99 116.787C119.072 116.869 119.155 116.869 119.321 116.952C119.238 116.869 119.155 116.787 119.155 116.787C119.238 116.869 119.321 116.952 119.404 117.035C119.321 116.952 119.321 116.869 119.238 116.869C119.321 117.035 119.404 117.118 119.487 117.283C119.487 117.2 119.404 117.118 119.404 117.035C119.487 117.2 119.487 117.283 119.487 117.449C119.487 117.366 119.487 117.283 119.487 117.2C119.487 117.283 119.487 117.366 119.487 117.531C119.487 117.449 119.487 117.366 119.487 117.283C119.487 117.366 119.487 117.366 119.404 117.449C119.404 117.366 119.487 117.283 119.487 117.2C119.487 117.283 119.404 117.283 119.404 117.366C119.487 117.283 119.487 117.2 119.57 117.2L119.487 117.283C119.57 117.2 119.653 117.2 119.653 117.118L119.57 117.2C119.653 117.2 119.736 117.118 119.819 117.118C119.736 117.118 119.736 117.118 119.653 117.2C119.736 117.2 119.819 117.2 119.901 117.2H119.819C119.57 117.2 119.321 117.283 119.072 117.531C118.907 117.697 118.741 118.028 118.741 118.276C118.741 118.524 118.824 118.772 119.072 119.021C119.238 119.186 119.487 119.352 119.819 119.352C120.399 119.352 120.896 119.103 121.228 118.607C121.477 118.193 121.477 117.697 121.394 117.2C121.311 116.869 121.145 116.539 120.979 116.208C120.813 116.042 120.731 115.877 120.565 115.711C120.316 115.463 120.067 115.38 119.819 115.215C119.57 115.132 119.321 115.049 119.072 115.132C118.741 115.132 118.409 115.215 118.078 115.38C117.829 115.463 117.663 115.794 117.58 115.959C117.497 116.208 117.58 116.539 117.663 116.704C117.829 116.952 117.995 117.118 118.243 117.2C118.326 117.2 118.409 117.2 118.492 117.2C118.824 116.869 118.99 116.869 119.155 116.787Z" fill="#ACB2B9"/>
<path fill-rule="evenodd" clip-rule="evenodd" d="M112.026 124.895C111.943 124.978 111.86 124.978 111.777 125.061C111.86 125.061 111.86 125.061 111.943 124.978C111.86 124.978 111.777 124.978 111.694 124.978C111.777 124.978 111.777 124.978 111.86 124.978C111.777 124.978 111.694 124.978 111.611 124.978C111.694 124.978 111.777 124.978 111.777 125.061C111.694 125.061 111.611 124.978 111.529 124.978C111.611 124.978 111.694 125.061 111.777 125.144C111.694 125.061 111.611 125.061 111.611 124.978C111.694 125.061 111.777 125.144 111.86 125.226C111.777 125.144 111.777 125.061 111.694 125.061C111.777 125.144 111.86 125.309 111.943 125.392C111.943 125.309 111.86 125.226 111.86 125.144C111.943 125.226 111.943 125.392 111.943 125.475V125.226C111.943 125.309 111.943 125.309 111.86 125.392C111.86 125.309 111.943 125.226 111.943 125.144C111.943 125.226 111.943 125.226 111.86 125.226C111.943 125.144 111.943 125.061 112.026 125.061L111.943 125.144C111.943 125.061 112.026 124.978 112.026 124.895C112.026 124.978 112.026 125.061 111.943 125.061C112.026 125.061 112.109 125.061 112.192 125.061C112.109 125.061 112.026 125.061 112.026 125.061C111.777 125.061 111.529 125.144 111.28 125.392C111.114 125.557 110.948 125.888 110.948 126.137C110.948 126.385 111.031 126.633 111.28 126.881C111.446 127.047 111.694 127.212 112.026 127.212C112.275 127.212 112.44 127.212 112.689 127.129C112.938 127.047 113.187 126.881 113.352 126.716C113.518 126.55 113.518 126.468 113.601 126.302C113.601 126.219 113.684 126.137 113.684 126.054C113.767 125.723 113.767 125.557 113.684 125.226C113.684 125.061 113.601 124.813 113.518 124.647C113.435 124.564 113.435 124.399 113.352 124.316C113.269 124.151 113.104 123.985 112.938 123.82C112.689 123.654 112.523 123.489 112.192 123.406C112.109 123.406 112.109 123.406 112.026 123.323C111.777 123.323 111.694 123.241 111.446 123.323C111.197 123.323 111.114 123.406 110.948 123.489C110.782 123.572 110.7 123.654 110.534 123.737C110.451 123.82 110.368 123.903 110.285 124.068C110.202 124.151 110.202 124.316 110.202 124.482C110.202 124.73 110.285 125.061 110.534 125.226C110.7 125.392 110.948 125.557 111.28 125.557C111.363 125.557 111.446 125.557 111.529 125.557C111.777 125.061 111.86 124.978 112.026 124.895Z" fill="#ACB2B9"/>
<path fill-rule="evenodd" clip-rule="evenodd" d="M104.482 166.183C105.477 162.377 111.529 153.027 114.347 150.958C116.668 149.304 118.824 148.559 121.477 149.635C124.13 150.71 126.7 152.944 128.523 155.013C130.43 157.164 133 159.646 133.58 162.542C133.746 163.287 119.156 171.478 104.482 166.183Z" fill="#D6D6D6"/>
<path fill-rule="evenodd" clip-rule="evenodd" d="M93.7876 79.7195C92.0467 81.1261 103.238 106.693 121.062 95.2746C126.202 91.965 133.083 85.8423 133 80.216C132.917 79.9677 103.487 71.8592 93.7876 79.7195Z" fill="#D6D6D6"/>
<path fill-rule="evenodd" clip-rule="evenodd" d="M73.8083 90.4758C71.4871 87.4145 69.4974 84.1049 67.7565 80.7126C67.0933 79.4715 66.4301 78.2304 65.8498 76.9893C63.8601 72.4386 62.285 67.8052 61.1244 63.089C60.8757 62.0134 60.627 60.9378 60.3783 59.9449C60.1296 58.8693 59.9638 57.7937 59.715 56.8008C59.1347 54.0704 58.5544 51.34 58.9689 48.5268C59.1347 47.6167 59.6321 47.7821 60.4612 48.4441C61.2902 49.106 62.2021 50.3471 62.5337 51.8364C62.8653 53.1602 62.8653 54.4841 63.1969 55.8079C63.4456 57.1317 63.6114 58.4556 63.8601 59.7794C64.1088 61.1032 64.2746 62.4271 64.6062 63.7509C64.8549 65.0748 65.1866 66.3986 65.5182 67.8052C66.2643 71.032 67.7565 74.0934 69.1658 77.1548C70.8239 80.4643 72.6477 83.6912 74.7202 86.7526C76.0467 88.5728 77.456 90.4758 78.9482 92.1306C79.5285 92.7926 80.1088 93.3717 80.6891 94.0337C81.2695 94.6128 81.9327 95.2748 82.513 95.8539C83.8394 97.0123 85.0829 98.1706 86.5752 99.0808L88.2332 100.239L89.9741 101.232C91.1347 101.894 92.2954 102.556 93.456 103.052C93.9534 103.301 94.4508 103.466 95.0311 103.714C96.9379 104.459 97.5182 104.79 97.7669 105.7C97.8498 105.865 97.9327 106.114 97.9327 106.279C98.0156 106.941 96.9379 107.189 95.2798 106.776C92.7928 106.114 90.3886 104.873 88.2332 103.549L86.6581 102.556L85 101.397L83.4249 100.239L81.9327 98.998C80.3575 97.7569 79.0311 96.3504 77.6218 94.9438C76.2954 93.5372 74.886 92.0479 73.8083 90.4758Z" fill="#ACB2B9"/>
<path fill-rule="evenodd" clip-rule="evenodd" d="M141.539 88.9036L143.114 86.7523C143.611 86.0077 144.026 85.1803 144.523 84.4356C145.518 82.9463 146.264 81.2915 147.093 79.6367C147.756 78.4784 148.088 77.1545 148.585 75.9962C150.409 71.6937 151.818 67.143 152.73 62.5096C152.979 61.5167 153.145 60.4411 153.311 59.3655C153.476 58.2899 153.642 57.297 153.725 56.2214C153.891 54.8975 153.891 53.5737 154.057 52.2499C154.14 51.588 154.222 50.926 154.305 50.2641C154.388 49.6022 154.554 48.9403 154.803 48.2784C155.134 47.451 155.632 47.6164 156.295 48.3611C157.041 49.1058 157.787 50.5123 157.787 52.0844C157.621 54.8975 157.207 57.7107 156.627 60.4411C156.378 61.8477 155.963 63.1715 155.549 64.5781C155.217 65.9847 154.72 67.3085 154.222 68.6323C153.642 70.2871 153.145 71.8592 152.564 73.514C152.067 75.1688 151.404 76.8236 150.741 78.3956C150.077 80.2159 149.083 81.8707 148.254 83.6082C147.839 84.4356 147.259 85.263 146.844 86.0904C146.347 86.9178 145.932 87.7452 145.352 88.5726L143.279 91.4685C142.533 92.3786 141.787 93.2888 141.041 94.1989L140.212 95.1918C139.881 95.5228 139.549 95.8537 139.217 96.1019L137.311 97.9222C136.647 98.5841 135.901 99.0806 135.238 99.577C134.492 100.156 133.829 100.735 133.165 101.232C132.005 101.976 130.844 102.721 129.767 103.549C128.606 104.21 127.362 104.872 126.119 105.534C125.621 105.865 125.041 106.113 124.461 106.279C122.305 107.024 121.559 107.024 120.896 106.444C120.73 106.279 120.564 106.196 120.482 106.031C120.15 105.534 120.813 104.707 122.222 104.128C126.45 102.225 130.596 99.9907 134.243 96.7638C134.989 96.2674 135.57 95.6055 136.233 94.9436C136.896 94.2817 137.559 93.7025 138.14 93.0406L139.881 90.9721L140.792 89.9792L141.539 88.9036Z" fill="#ACB2B9"/>
<path fill-rule="evenodd" clip-rule="evenodd" d="M77.2072 123.82C76.1295 125.144 74.9689 126.385 73.974 127.791C73.4766 128.453 72.8963 129.115 72.4818 129.86L71.0725 132.011C70.3264 133.087 69.829 134.245 69.2487 135.321C67.0932 139.127 65.2694 143.264 63.943 147.483C63.6114 148.394 63.3626 149.386 63.1968 150.297C62.9481 151.289 62.6994 152.2 62.5336 153.192C62.3678 154.434 62.202 155.675 61.9533 156.916C61.8704 157.578 61.7875 158.157 61.6217 158.736C61.5388 159.315 61.373 159.977 61.0414 160.556C60.7098 161.301 60.2124 161.136 59.6321 160.391C58.9689 159.646 58.2228 158.24 58.3057 156.75C58.6373 154.103 59.2176 151.455 59.9637 148.89C60.2953 147.566 60.8756 146.325 61.373 145.084C61.6217 144.422 61.8704 143.843 62.1191 143.181L63.031 141.361C63.6943 139.871 64.4404 138.465 65.1036 136.976C65.7668 135.486 66.5129 133.997 67.3419 132.59C68.1709 131.018 69.2487 129.529 70.1606 127.957C71.2383 126.468 72.2331 124.978 73.3937 123.654L75.5492 121.089L77.7875 118.69C78.8652 117.449 80.1917 116.373 81.3523 115.215C82.5958 114.139 83.8393 113.064 85.1658 111.905C86.1606 111.078 87.1554 110.251 88.1502 109.423C89.145 108.596 90.1398 107.851 91.2176 107.106C91.6321 106.776 92.1295 106.445 92.6269 106.114C94.4507 105.038 95.1139 104.872 95.8601 105.369C96.0259 105.452 96.2746 105.534 96.3575 105.7C96.8549 106.114 96.3575 107.024 95.1139 107.934C91.5492 110.582 87.8186 113.312 84.4196 116.373C83.0932 117.449 81.9326 118.773 80.6891 119.931C79.6114 121.338 78.3678 122.579 77.2072 123.82Z" fill="#ACB2B9"/>
<path fill-rule="evenodd" clip-rule="evenodd" d="M143.943 122.744C145.104 124.316 146.264 125.723 147.342 127.378L148.917 129.777C149.415 130.604 149.912 131.432 150.326 132.259L151.404 133.997C151.736 134.576 152.067 135.238 152.399 135.817C154.554 140.202 156.378 144.753 157.622 149.386L158.119 150.958L158.534 152.53C158.782 153.606 159.114 154.599 159.28 155.675C159.529 156.998 159.86 158.405 160.109 159.729C160.192 160.391 160.192 161.135 160.192 161.797C160.192 162.459 160.192 163.204 160.026 163.866C159.86 164.693 159.363 164.61 158.534 163.949C157.705 163.287 156.71 162.128 156.461 160.639C156.13 159.315 156.047 157.991 155.798 156.667C155.632 155.344 155.301 154.103 155.052 152.779C154.554 150.131 153.891 147.566 153.145 144.918C152.316 141.774 150.658 138.796 149.083 135.817C148.171 134.245 147.259 132.59 146.264 131.101C145.187 129.612 144.275 128.039 143.114 126.55C142.451 125.64 141.788 124.73 141.041 123.902L138.803 121.338C137.643 120.096 136.399 118.855 135.238 117.614C133.912 116.456 132.668 115.298 131.342 114.222C130.264 113.395 129.187 112.65 128.109 111.905L124.71 109.919C124.212 109.589 123.715 109.34 123.218 109.092C121.311 108.016 120.896 107.52 120.813 106.61C120.813 106.362 120.813 106.196 120.813 105.948C120.896 105.286 121.974 105.286 123.466 106.031C127.943 108.016 132.171 110.995 136.067 114.47C137.56 115.711 138.803 117.118 140.212 118.442C141.456 119.766 142.699 121.172 143.943 122.744Z" fill="#ACB2B9"/>
<path fill-rule="evenodd" clip-rule="evenodd" d="M119.156 57.7107L117.332 57.8762L115.425 57.9589L111.694 58.1244C109.207 58.2071 106.72 58.0417 104.233 57.9589C102.409 57.8762 100.586 57.7107 98.8446 57.5452C97.2695 57.4625 95.6944 57.1315 94.1192 56.8833C92.5441 56.5523 90.969 56.3869 89.3939 56.0559L84.7514 54.8976C84.0052 54.7321 83.1762 54.5666 82.4301 54.3184L80.1918 53.5737L76.1296 52.2499C74.8032 51.7534 73.4768 51.1743 72.2332 50.6778C70.5752 49.9332 68.8343 49.4367 67.2591 48.5266C65.684 47.6992 64.1089 46.7063 62.6167 45.7962C61.7047 45.217 62.0363 44.886 63.1141 44.886C64.1918 44.886 66.0156 45.1343 67.8395 46.0444C74.3058 49.1058 81.0208 51.6707 88.0674 53.3255C90.14 53.9874 92.3783 54.2356 94.5337 54.5666C95.6115 54.7321 96.7721 54.8976 97.8498 54.9803C98.9275 55.063 100.088 55.1458 101.166 55.2285C102.409 55.3113 103.57 55.4767 104.814 55.4767L108.461 55.5595C110.865 55.6422 113.352 55.4767 115.757 55.394C117.249 55.394 118.741 55.1458 120.233 54.9803C121.725 54.8148 123.218 54.7321 124.71 54.4011C126.948 53.9874 129.187 53.7392 131.425 53.16C132.503 52.9118 133.663 52.6636 134.741 52.4154C135.819 52.0844 136.896 51.7534 137.974 51.4225C141.29 50.3469 144.44 48.8576 147.508 47.2855C148.171 46.9545 148.751 46.4581 149.415 46.1271C149.995 45.7962 150.492 45.548 150.99 45.2997C151.404 45.0515 151.736 44.886 152.067 44.8033C152.731 44.6378 153.228 44.6378 153.725 44.8033C153.974 44.886 154.223 44.886 154.389 44.9688C154.72 45.1343 154.637 45.4652 154.389 45.9617C154.057 46.4581 153.56 47.2028 152.648 47.9474C147.259 51.7534 140.71 53.9047 134.161 55.6422L130.513 56.4696C129.27 56.8006 128.026 56.8833 126.782 57.1315C125.539 57.297 124.295 57.5452 123.052 57.7107H119.156Z" fill="#ACB2B9"/>
<path fill-rule="evenodd" clip-rule="evenodd" d="M97.7668 29.5792C100.337 29.2482 102.907 29.1655 105.477 29.0828C108.047 28.9173 110.617 29.1655 113.186 29.1655C115.093 29.1655 116.917 29.4137 118.824 29.5792C125.373 30.3239 131.839 31.8132 138.14 33.7989C140.876 34.7091 143.694 35.7019 146.347 36.7776L148.917 37.8532L151.404 39.0943C152.233 39.5907 153.062 40.0044 153.808 40.5836C154.637 41.2455 155.3 41.9902 155.798 42.9003C156.129 43.4795 156.129 43.8104 155.964 43.8104C155.798 43.8104 155.549 43.645 155.052 43.3967C154.637 43.1485 153.974 42.9003 153.228 42.6521C152.813 42.4866 152.482 42.4866 152.067 42.3211C151.653 42.1556 151.155 41.9902 150.741 41.7419C147.425 40.2526 144.109 38.6806 140.627 37.3567C137.145 36.1156 133.663 34.9573 130.015 33.9644C128.938 33.7162 127.86 33.468 126.699 33.137C125.622 32.8888 124.461 32.8061 123.3 32.5578C122.14 32.3924 121.062 32.2269 119.901 32.0614C118.741 31.9787 117.58 31.8959 116.503 31.7304C114.015 31.3995 111.446 31.4822 108.958 31.3995C106.471 31.3167 103.901 31.565 101.414 31.6477C99.8393 31.7304 98.3471 31.9787 96.7719 32.1441C95.1968 32.3096 93.7046 32.4751 92.1295 32.8061C89.8082 33.3025 87.487 33.6334 85.1657 34.2126C82.9274 34.8745 80.6061 35.4537 78.3678 36.1156C76.6269 36.6948 74.9688 37.4395 73.3108 38.1014C71.6528 38.7633 69.9947 39.4252 68.3367 40.2526C67.5906 40.5836 66.9274 40.9145 66.1813 41.3282C63.5284 42.5693 62.5336 42.8176 61.7046 42.4039C61.5388 42.3211 61.2901 42.2384 61.1243 42.1556C60.6269 41.7419 61.5388 40.8318 63.4455 39.7562C64.8548 38.9288 66.3471 38.1841 67.8393 37.4395L68.9999 36.8603L70.1605 36.3639C70.9896 36.0329 71.7357 35.7019 72.5647 35.4537C74.1398 34.7918 75.7978 34.2126 77.373 33.6334C79.031 33.137 80.689 32.6406 82.43 32.2269C83.6735 31.8959 84.917 31.4822 86.1605 31.234L89.974 30.4893C91.2175 30.2411 92.544 29.9102 93.7875 29.8274L97.7668 29.5792Z" fill="#ACB2B9"/>
<path fill-rule="evenodd" clip-rule="evenodd" d="M81.7669 155.84C83.0104 155.509 84.2539 155.178 85.5803 154.93C86.0777 154.847 86.4922 154.681 86.9068 154.516C88.5648 154.185 90.2228 153.937 91.7979 153.689C92.5441 153.606 93.2073 153.44 93.9534 153.275C94.8653 153.109 95.7772 152.696 96.772 153.109C97.1036 153.275 97.1036 153.44 96.8549 153.771C96.6891 154.02 96.6062 154.351 96.4404 154.599C96.2746 154.847 96.1088 155.095 95.8601 155.178C94.0363 155.674 92.2954 156.088 90.3057 156.171C89.1451 156.254 88.0674 156.667 86.9068 156.915C85.6632 157.246 84.4197 157.495 83.1762 157.826C82.4301 158.074 81.684 158.239 80.9378 158.488C79.7772 158.901 78.6995 159.232 77.6218 159.729C76.7928 160.142 76.0467 160.639 75.3005 161.135C75.1347 161.218 74.9689 161.383 74.8031 161.466C74.1399 161.797 73.8083 161.549 73.3938 161.218C73.3109 161.135 73.228 161.052 73.1451 160.97C72.8964 160.639 72.9793 160.142 73.3109 159.646C73.8912 158.984 74.6373 158.57 75.3834 158.074C76.1296 157.66 76.9586 157.329 77.7876 156.998C79.1969 156.584 80.5233 156.171 81.7669 155.84Z" fill="#ACB2B9"/>
<path fill-rule="evenodd" clip-rule="evenodd" d="M141.539 175.118C134.989 177.269 128.026 178.676 121.228 179.421C118.741 179.669 116.171 179.917 113.684 180C104.813 180.248 95.8599 179.172 87.2381 177.104C83.4247 176.194 79.6112 175.035 75.9635 173.712C73.5594 172.884 71.2381 171.809 68.9998 170.568C66.8444 169.326 64.6889 167.837 63.1138 165.686C62.6164 165.024 62.5335 164.61 62.6164 164.61C62.7822 164.528 63.1138 164.776 63.6941 165.107C64.2744 165.438 65.1863 165.769 66.1812 166.182C67.176 166.596 68.3366 167.092 69.5801 167.754C71.7356 168.913 73.9739 169.988 76.2122 170.816C78.5335 171.643 80.9376 172.388 83.3418 173.05C88.1501 174.374 93.0413 175.532 98.0153 176.359C103.984 177.352 110.285 177.352 116.419 176.938C123.217 176.525 129.932 175.449 136.482 173.629C140.544 172.471 144.523 171.147 148.337 169.575C149.829 168.995 151.238 168.334 152.565 167.589C153.891 166.844 155.3 166.017 156.295 165.024C156.793 164.528 157.207 163.948 157.373 163.452C157.539 162.955 157.373 162.542 156.875 162.128C156.046 161.218 154.471 160.639 153.062 160.06C148.502 158.488 143.694 157.66 138.886 156.833C137.808 156.667 136.813 156.502 135.736 156.336C131.839 155.592 130.596 155.095 129.85 154.268C129.684 154.102 129.435 153.937 129.352 153.771C129.021 153.275 130.761 153.027 133.746 153.109C135.984 153.192 138.14 153.606 140.378 153.937C142.616 154.268 144.855 154.681 147.093 155.261C149.331 155.757 151.653 156.336 153.891 157.164C155.052 157.577 156.212 157.991 157.456 158.736C158.036 159.149 158.699 159.563 159.28 160.308C159.611 160.639 159.86 161.135 160.109 161.632C160.274 162.211 160.44 162.707 160.357 163.369C160.357 164.197 160.026 164.941 159.694 165.52C159.528 165.851 159.362 166.017 159.197 166.265C159.031 166.513 158.865 166.679 158.616 166.927C157.87 167.754 157.041 168.251 156.295 168.83C154.72 169.906 153.062 170.65 151.487 171.395C148.171 172.884 144.855 174.043 141.539 175.118Z" fill="#ACB2B9"/>
<path fill-rule="evenodd" clip-rule="evenodd" d="M134.575 69.5424C134.907 69.6251 135.238 69.7906 135.487 69.8733C135.901 70.0388 136.482 70.287 136.896 70.618C137.311 70.9489 137.725 71.2799 137.891 71.7763C138.14 72.2728 137.974 72.7692 137.974 73.2657L137.394 74.8377C137.228 75.1687 137.062 75.4996 136.979 75.9133C136.647 76.5752 136.399 77.3199 135.984 77.9818C135.321 79.3057 134.575 80.6295 133.746 81.8706C132.171 84.3528 130.347 86.7522 128.274 88.9035C126.533 90.8065 124.627 92.7095 122.471 94.1988C120.565 95.6054 118.575 96.7637 116.337 97.6739C115.259 98.0876 114.098 98.3358 112.938 98.6667C111.777 98.915 110.616 98.9977 109.373 99.1632C104.565 99.3287 99.9221 97.7566 96.1086 95.2744C92.6268 93.0404 89.6423 90.2273 86.9895 87.2487C83.5905 83.3599 80.7718 78.9747 78.7822 74.2585C78.2019 72.7692 78.6993 72.7692 79.777 73.7621C80.7718 74.755 82.347 76.658 83.9221 79.0574C86.6579 83.2772 89.891 87.1659 93.7045 90.3928C97.4351 93.6196 101.912 96.0191 106.72 96.5983C109.622 96.9292 112.606 96.35 115.425 95.3572C118.16 94.1988 120.73 92.3785 123.052 90.3928C128.109 85.8421 132.337 80.2158 134.907 73.8448L135.072 73.3484C135.072 73.2657 135.155 73.1002 135.155 73.0174C135.155 72.9347 135.072 72.852 134.907 72.7692C134.824 72.6865 134.741 72.6865 134.575 72.6037L134.409 72.521L134.078 72.4383C133.166 72.1073 132.254 71.8591 131.342 71.6109C129.435 71.1144 127.445 70.7835 125.539 70.4525C119.155 69.4596 112.606 68.8804 106.14 68.8804C101.166 68.8804 96.1915 69.3769 91.3832 70.287C90.3055 70.5352 89.3107 70.7835 88.233 71.0317C84.4195 72.0246 83.3418 72.521 82.1812 72.2728C81.9325 72.19 81.6009 72.19 81.4351 72.1073C80.7718 71.8591 82.0983 70.4525 84.9998 69.2941C89.3936 67.6394 94.0361 66.8947 98.7615 66.481C103.487 66.0673 108.295 66.15 113.021 66.3983C116.585 66.5637 120.15 66.8947 123.632 67.3911C127.445 67.8048 130.927 68.384 134.575 69.5424Z" fill="#ACB2B9"/>
<path fill-rule="evenodd" clip-rule="evenodd" d="M133.829 161.963C133.912 161.88 133.912 161.88 133.829 161.963C133.912 162.045 133.746 161.301 133.58 160.804C133.415 160.308 133.166 159.729 132.917 159.232C132.42 158.157 131.757 157.164 131.01 156.171C130.264 155.178 129.518 154.185 128.689 153.192L127.529 151.703C127.114 151.206 126.782 150.71 126.368 150.296C125.124 148.807 123.715 147.483 122.306 146.242C121.062 145.166 119.653 144.174 118.244 143.346C116.834 142.519 115.342 142.105 113.85 142.105C112.358 142.105 110.782 142.684 109.29 143.429C107.798 144.174 106.472 145.166 105.145 146.325C102.824 148.311 100.751 150.627 98.7617 152.944C96.2747 155.923 94.0363 159.149 92.0467 162.459C91.4664 163.452 91.2177 163.286 91.1348 162.128C91.1348 161.549 91.2177 160.722 91.3835 159.811C91.6322 158.901 92.0467 157.908 92.7099 156.833C93.7876 155.095 95.0311 153.44 96.3576 151.786C97.684 150.214 99.0104 148.642 100.503 147.152C101.995 145.663 103.487 144.256 105.228 143.015C106.14 142.353 107.052 141.774 108.047 141.36C109.041 140.864 110.036 140.45 111.197 140.202C112.523 139.871 113.933 139.788 115.342 139.954C116.751 140.119 118.078 140.698 119.238 141.278C121.643 142.519 123.715 144.091 125.539 145.911C127.611 147.814 129.352 150.131 131.01 152.199C132.751 154.351 134.492 156.585 135.653 159.315C135.819 159.729 135.984 160.142 136.15 160.556L136.316 161.218C136.399 161.549 136.399 161.797 136.482 162.128C136.482 162.542 136.399 163.038 136.067 163.369C135.736 163.7 135.321 164.031 134.99 164.197C134.409 164.528 133.829 164.858 133.166 165.107C132.005 165.686 130.762 166.1 129.518 166.513C124.544 168.168 119.321 168.913 114.181 169.078C110.202 169.161 106.223 168.913 102.244 168.085C101.415 167.92 100.503 167.754 99.6736 167.506C96.5234 166.513 95.6944 165.851 95.2798 165.024C95.1969 164.858 95.0311 164.61 95.0311 164.445C94.9482 163.866 96.2747 164.031 98.513 164.528C100.171 164.858 101.829 165.272 103.57 165.52C105.311 165.851 106.969 166.017 108.71 166.182C112.192 166.431 115.757 166.431 119.321 166.017C121.974 165.686 124.544 165.189 127.114 164.445C128.358 164.114 129.601 163.617 130.845 163.121C131.425 162.873 132.005 162.625 132.586 162.294C132.834 162.128 133.166 161.963 133.415 161.88L133.829 161.963Z" fill="#ACB2B9"/>
<path fill-rule="evenodd" clip-rule="evenodd" d="M111.031 108.927C110.616 108.513 110.451 107.934 110.368 107.52C110.285 107.106 110.202 106.61 110.285 106.113C110.285 105.782 110.368 105.369 110.534 105.038C111.197 103.797 112.606 103.383 113.684 103.548C114.181 103.631 114.679 103.797 115.093 103.962C115.673 104.21 116.254 104.624 116.42 105.286C116.502 105.451 116.171 105.617 115.756 105.7C115.342 105.782 115.01 105.865 114.762 105.782C114.181 105.286 113.518 105.12 112.772 105.12C112.274 105.12 112.026 105.534 111.86 105.865C111.694 106.279 111.777 107.024 111.943 107.52C112.109 107.768 112.274 108.016 112.606 108.099C113.103 108.265 113.767 108.182 114.181 107.934C114.596 107.685 114.762 107.272 114.762 107.106C114.762 107.024 114.679 107.024 114.679 107.024C114.679 106.941 114.762 106.775 115.01 106.444L115.176 106.196C115.342 105.948 115.673 105.865 116.088 106.279C116.337 106.61 116.42 107.106 116.337 107.603C116.254 108.016 116.005 108.43 115.756 108.678C115.259 109.257 114.679 109.506 114.015 109.671C113.103 110.002 111.86 109.919 111.031 108.927Z" fill="#D6D6D6"/>
<path fill-rule="evenodd" clip-rule="evenodd" d="M120.565 114.718C120.979 114.966 121.394 115.38 121.559 115.628C121.808 115.959 121.974 116.29 122.057 116.704C122.14 117.035 122.223 117.283 122.14 117.614C121.974 118.772 120.979 119.6 119.984 119.765C119.57 119.848 119.155 119.848 118.741 119.848C118.243 119.848 117.663 119.683 117.331 119.186C117.248 119.021 117.497 118.772 117.746 118.524C118.077 118.276 118.326 118.028 118.492 118.028C118.989 118.193 119.487 118.193 119.984 118.028C120.316 117.945 120.399 117.614 120.399 117.283C120.482 116.952 120.233 116.456 119.984 116.125C119.818 115.959 119.653 115.877 119.404 115.877C119.072 115.877 118.575 116.125 118.326 116.456C118.077 116.704 118.077 117.118 118.243 117.2H118.326C118.326 117.2 118.243 117.366 118.16 117.78L118.077 118.028C117.995 118.276 117.746 118.524 117.248 118.276C116.917 118.111 116.668 117.697 116.585 117.283C116.502 116.869 116.585 116.538 116.751 116.208C117 115.628 117.414 115.215 117.829 114.884C118.492 114.47 119.57 114.139 120.565 114.718Z" fill="#D6D6D6"/>
<path fill-rule="evenodd" clip-rule="evenodd" d="M112.689 127.791C112.192 127.957 111.694 127.957 111.363 127.874C111.031 127.791 110.617 127.708 110.202 127.46C109.953 127.295 109.622 127.129 109.456 126.881C108.71 125.888 108.876 124.647 109.373 123.902C109.622 123.571 109.871 123.24 110.202 122.909C110.617 122.578 111.114 122.248 111.611 122.33C111.777 122.33 111.777 122.661 111.777 123.075C111.777 123.489 111.694 123.82 111.611 123.985C111.114 124.233 110.782 124.564 110.534 125.061C110.368 125.392 110.534 125.64 110.782 125.888C110.948 126.136 111.529 126.302 111.943 126.384C112.192 126.384 112.358 126.302 112.523 126.136C112.772 125.888 112.938 125.392 112.855 124.978C112.772 124.647 112.523 124.316 112.358 124.399L112.275 124.481C112.275 124.481 112.192 124.316 112.026 123.985L111.86 123.737C111.694 123.489 111.777 123.158 112.192 122.909C112.523 122.744 113.021 122.909 113.352 123.158C113.684 123.406 113.933 123.654 114.016 123.985C114.264 124.564 114.347 125.143 114.264 125.723C114.264 126.384 113.767 127.377 112.689 127.791Z" fill="#D6D6D6"/>
<path d="M151.57 46.458C152.648 45.796 153.974 46.0443 154.554 46.9544C157.373 51.4223 145.933 49.8503 151.57 46.458Z" stroke="#ACB2B9" stroke-width="1.2"/>
<path fill-rule="evenodd" clip-rule="evenodd" d="M159.114 58.7036C160.192 58.0416 161.518 58.2899 162.099 59.2C164.834 63.7507 153.394 62.1786 159.114 58.7036Z" fill="#ACB2B9"/>
<path d="M47.3627 148.228C47.4456 147.152 42.1399 146.49 35.2591 146.077C34.9275 146.077 34.5959 146.077 34.2642 145.994C33.9326 145.994 33.601 145.994 33.2694 145.911C26.3886 145.663 21.0829 145.911 21 146.987C21 147.98 26.2228 148.724 33.1036 149.138C33.4352 149.138 33.7668 149.138 34.0984 149.221C34.4301 149.221 34.7617 149.221 35.0933 149.304C41.9741 149.469 47.2798 149.221 47.3627 148.228Z" fill="#ACB2B9"/>
<path d="M230.824 147.152C230.824 146.077 216.15 145.663 197.083 145.663C196.088 145.663 195.176 145.663 194.264 145.663C193.352 145.663 192.357 145.663 191.446 145.663C172.378 145.746 157.705 146.242 157.705 147.318C157.705 148.311 172.378 148.807 191.446 148.807C192.44 148.807 193.352 148.807 194.264 148.807C195.176 148.807 196.171 148.807 197.083 148.807C216.15 148.642 230.824 148.145 230.824 147.152Z" fill="#ACB2B9"/>
<path d="M175.031 84.6011C174.782 84.6011 174.533 85.6767 174.119 87.5797C173.953 88.4898 173.704 89.6482 173.373 90.972C173.041 92.2959 172.627 93.7852 171.881 95.1918C171.549 95.9364 171.052 96.5983 170.471 97.1775C169.891 97.7567 169.228 98.2531 168.482 98.6668C166.989 99.4115 164.917 99.6597 162.927 99.0805C160.938 98.5841 159.031 97.343 157.787 95.5227C157.207 94.6126 156.793 93.6197 156.793 92.6268C156.71 91.634 156.958 90.4756 157.539 89.6482C157.953 88.9863 158.533 88.4071 159.28 88.0761C159.611 87.9107 159.943 87.9107 160.191 87.9107C160.44 87.9107 160.606 87.9934 160.938 88.1589C161.269 88.4071 161.601 88.8208 161.932 89.2345C162.181 89.6482 162.43 90.1446 162.596 90.6411C162.927 91.634 162.927 92.7923 162.761 93.8679C162.513 94.9435 162.181 95.8537 161.518 96.6811C160.938 97.5085 160.109 98.2531 159.28 98.915C157.539 100.156 155.549 101.066 153.642 101.811C151.736 102.556 149.995 103.135 148.337 103.631C145.021 104.541 142.285 104.955 140.378 105.286C138.471 105.617 137.394 105.782 137.394 106.031C137.394 106.279 138.471 106.527 140.461 106.61C142.451 106.693 145.352 106.61 148.917 105.865C150.658 105.534 152.647 105.038 154.637 104.293C156.627 103.548 158.865 102.804 161.02 101.315C162.098 100.57 163.176 99.6597 164.005 98.5014C164.419 97.9222 164.834 97.2603 165.166 96.5983C165.497 95.9364 165.663 95.1918 165.829 94.4471C166.16 92.9578 166.16 91.3857 165.663 89.8137C165.414 89.069 165.083 88.2416 164.668 87.5797C164.171 86.9178 163.673 86.1731 162.844 85.594C162.181 85.0975 161.269 84.7666 160.44 84.7666C159.611 84.7666 158.782 84.932 158.119 85.1803C156.793 85.7594 155.632 86.7523 154.886 87.9934C153.974 89.4827 153.642 91.2203 153.725 92.875C153.808 94.5298 154.471 96.1019 155.3 97.343C157.041 99.9079 159.694 101.314 162.264 101.976C163.59 102.307 164.917 102.307 166.16 102.142C167.404 101.976 168.647 101.645 169.725 100.984C170.803 100.322 171.715 99.577 172.378 98.7496C173.041 97.9222 173.622 97.012 173.953 96.1019C174.699 94.3644 175.031 92.7096 175.197 91.2203C175.362 89.8137 175.445 88.5726 175.362 87.5797C175.445 85.6767 175.197 84.6011 175.031 84.6011Z" fill="#ACB2B9"/>
</g>
<defs>
<clipPath id="clip0_254_87407">
<rect width="225" height="208" fill="white" transform="translate(0.5)"/>
</clipPath>
</defs>
</svg>
